<svg xmlns="http://www.w3.org/2000/svg" xmlns:xlink="http://www.w3.org/1999/xlink" version="1.1" id="Layer_1" x="0px" y="0px" viewBox="0 0 429.9 512.5" enable-background="new 0 0 429.9 512.5" xml:space="preserve">
<g>
	<path fill="#999861" d="M55.9 249.2c0-23.8 0-47.8 0.1-71.6c1.5-1.6 3-3.1 4.3-4.6c5.7-0.5 11.5-1 17.2-1.6v-5.6l-1.9-1.6 c-8.6 0.7-17.3 1.6-25.9 2.3c-0.7 0.9-1.6 1.7-2.3 2.6l-0.1 79.5l1.7 1.5C51.4 249.8 53.7 249.6 55.9 249.2z"/>
	<path fill="#999861" d="M123.1 18.9L122.9 122c0 1-0.4 2-1.1 2.6c-5.4 5.3-11 10.6-16.4 16.1c3.1 2.6 6.2 5.2 9.3 7.8 c5.7-5.6 11.2-11.1 16.9-16.5c0.1-35 0.1-70 0.2-105C128.9 24.2 126 21.5 123.1 18.9z"/>
	<path fill="#999861" d="M49.8 39.4c-0.7 0.7-1.5 1.5-2.2 2.2l-0.1 79.7c0.6 0.6 1.4 1.1 2 1.7c2.2-0.1 4.4-0.4 6.7-0.5 c0-24.2 0-48.4 0.1-72.5c1.5-1.5 3-2.8 4.4-4.3c5.8-0.1 11.5-0.2 17.3-0.4v-4.4c-0.7-0.6-1.4-1.2-2.1-2 C67.1 39.2 58.4 39.3 49.8 39.4z"/>
	<path fill="#999861" d="M122.5 262.2c0 1-0.4 1.9-1 2.5c-6.3 6.8-12.6 13.6-18.8 20.3c-0.6 0.6-1.4 1-2.2 1.1 c-28.3 4.3-56.8 9-85.2 13.8c-0.7 2.8-1.5 5.8-2.1 8.6c33-5.8 66.1-11.2 99-16.3c6.3-6.8 12.6-13.6 18.9-20.3 c0.1-35.1 0.1-70.3 0.2-105.3c-2.8-2.3-5.8-4.8-8.6-7.2L122.5 262.2z"/>
</g>
<path fill="#202124" d="M4.8 18.2C3.2 12.1 1.6 6.1 0 0c33.2 0 66.4 0 99.8 0c6.3 5.9 12.6 11.7 18.9 17.4c-0.1 35-0.1 70-0.2 105 c-6.4 6.2-12.8 12.5-19.4 18.9c6.4 5.4 12.8 10.7 19.3 15.9c-0.1 35.1-0.1 70.3-0.2 105.3c-6.3 6.7-12.6 13.5-18.9 20.3 c-33.1 5.1-66.1 10.5-99 16.3c1.6-6.5 3.2-13 4.8-19.4C4.8 192.5 4.8 105.3 4.8 18.2z M43 40.5c0 27.7 0 55.2-0.1 82.9 c1.5 1.4 3 2.6 4.3 4c9.6-0.7 19.3-1.4 28.9-2.1c1.5-1.5 3-3 4.4-4.4c0-27 0.1-54.1 0.1-81.1c-1.5-1.4-3-2.7-4.3-4.1 c-9.6 0.2-19.3 0.4-29 0.6C45.9 37.7 44.5 39.2 43 40.5z M80.5 164.6c-1.5-1.2-3-2.5-4.3-3.7c-9.6 0.9-19.3 1.7-28.9 2.6 c-1.5 1.5-3 3.1-4.3 4.6c0 27.7 0 55.2-0.1 82.9c1.5 1.2 3 2.3 4.3 3.6c9.6-1.4 19.3-2.7 28.9-4.1c1.5-1.6 3-3.2 4.3-4.7 C80.4 218.7 80.5 191.7 80.5 164.6z"/>
<g>
	<path fill="#999861" d="M354.2 443.1c0-23.8 0-47.8 0.1-71.6c1.5-1.6 3-3.1 4.3-4.6c5.7-0.5 11.5-1 17.2-1.6v-5.6l-1.9-1.6 c-8.6 0.7-17.3 1.6-25.9 2.3c-0.9 0.9-1.6 1.7-2.3 2.6l-0.1 79.5l1.7 1.5C349.5 443.9 351.9 443.5 354.2 443.1z"/>
	<path fill="#999861" d="M347.9 233.4c-0.7 0.7-1.5 1.5-2.2 2.2l-0.1 79.7c0.6 0.6 1.4 1.1 2 1.7c2.2-0.1 4.4-0.4 6.7-0.5 c0-24.2 0-48.4 0.1-72.5c1.5-1.5 3-2.8 4.4-4.3c5.8-0.1 11.5-0.2 17.3-0.4v-4.4c-0.7-0.6-1.4-1.2-2.1-2 C365.3 233 356.7 233.3 347.9 233.4z"/>
	<path fill="#999861" d="M421.3 212.8L421 315.9c0 1-0.4 2-1.1 2.6c-5.6 5.3-11 10.7-16.4 16.1c3.1 2.6 6.2 5.2 9.3 7.8 c5.7-5.6 11.2-11.1 16.9-16.5c0.1-35 0.1-70 0.2-105C427.1 218.2 424.2 215.5 421.3 212.8z"/>
	<path fill="#999861" d="M420.6 456.2c0 1-0.4 1.9-1 2.5c-6.3 6.7-12.6 13.5-18.8 20.3c-0.6 0.6-1.4 1-2.2 1.1 c-28.3 4.3-56.9 9-85.2 13.8c-0.7 2.8-1.5 5.8-2.1 8.6c33-5.8 66.1-11.2 99-16.3c6.3-6.8 12.6-13.6 18.9-20.3 c0.1-35.1 0.1-70.3 0.2-105.3c-2.8-2.3-5.8-4.8-8.6-7.2L420.6 456.2z"/>
</g>
<path fill="#202124" d="M303 212.1c-1.6-6.1-3.2-12.1-4.8-18.2c33.2 0 66.4 0 99.8 0c6.3 5.9 12.6 11.7 18.9 17.4 c-0.1 35-0.1 70-0.2 105c-6.4 6.2-12.8 12.5-19.4 18.9c6.4 5.4 12.8 10.7 19.3 15.9c-0.1 35.1-0.1 70.3-0.2 105.3 c-6.3 6.7-12.6 13.5-18.9 20.3c-33.1 5.1-66.1 10.5-99 16.3c1.6-6.5 3.2-13 4.8-19.4C303 386.6 303 299.4 303 212.1z M341.2 234.5 c0 27.7 0 55.2-0.1 82.9c1.5 1.4 3 2.6 4.3 4c9.6-0.7 19.3-1.4 28.9-2.1c1.5-1.5 3-3 4.4-4.4c0-27 0.1-54.1 0.1-81.1 c-1.5-1.4-3-2.7-4.3-4.1c-9.6 0.2-19.3 0.4-29 0.6C344.1 231.7 342.6 233 341.2 234.5z M378.7 358.7c-1.5-1.2-3-2.5-4.3-3.7 c-9.6 0.9-19.3 1.7-28.9 2.6c-1.5 1.5-3 3.1-4.3 4.6c0 27.7 0 55.2-0.1 82.9c1.5 1.2 3 2.3 4.3 3.6c9.6-1.4 19.3-2.7 28.9-4.1 c1.5-1.6 3-3.2 4.3-4.7C378.7 412.7 378.7 385.7 378.7 358.7z"/>
<path fill="#999861" d="M347.9 27.2l-15.6 21.2l-220 444.4l-2.1 10.6c-0.4 1.7-1.9 3-3.6 3l0 0l-37.3-0.1l-4 6.2l55 0.1l2.2-11.1 l220.2-445l21.2-29.1h-16.2V27.2z"/>
<path fill="#202124" d="M326.8 42.9l-220.5 445l-2.2 11.1l-55-0.1l24.7-37.9L287 30.8l3.3-17.2H348L326.8 42.9z"/>
</svg>
