<?xml version="1.0" standalone="no"?>
<!DOCTYPE svg PUBLIC "-//W3C//DTD SVG 1.1//EN" "http://www.w3.org/Graphics/SVG/1.1/DTD/svg11.dtd" >
<svg xmlns="http://www.w3.org/2000/svg" xmlns:xlink="http://www.w3.org/1999/xlink" version="1.1">
<metadata></metadata>
<defs>
<font id="moonshineroblique" horiz-adv-x="729" >
<font-face units-per-em="2048" ascent="1638" descent="-410" />
<missing-glyph horiz-adv-x="409" />
<glyph unicode="&#xfb01;" horiz-adv-x="995" d="M-39 0l33 68l180 1282l-12 65h530l-4 -176h-354l-62 -442h111l70 22l-33 -221l-62 23h-110l-78 -553l12 -68h-221zM612 0l33 66l180 1282l-12 67h221l-33 -67l-180 -1282l13 -66h-222z" />
<glyph horiz-adv-x="0" />
<glyph horiz-adv-x="682" />
<glyph unicode=" "  horiz-adv-x="409" />
<glyph unicode="&#x09;" horiz-adv-x="409" />
<glyph unicode="&#xa0;" horiz-adv-x="409" />
<glyph unicode="!" horiz-adv-x="344" d="M-10 41l14 96l47 41h94l35 -41l-14 -96l-47 -41h-94zM43 260l10 232l119 835l-10 88h221l-35 -88l-119 -835l-55 -232h-131z" />
<glyph unicode="&#x22;" horiz-adv-x="516" d="M121 1278l14 96l47 41h94l35 -41l-20 -137l-35 -88h-43l-10 88h-47zM379 1278l14 96l47 41h95l34 -41l-20 -137l-35 -88h-43l-10 88h-47z" />
<glyph unicode="#" horiz-adv-x="1146" d="M-16 442l47 179h231l47 174h-231l47 178h231l105 393l-8 49h221l-53 -110l-89 -332h222l104 393l-8 49h221l-51 -110l-88 -332h231l-47 -178h-231l-47 -174h231l-47 -179h-231l-105 -393l8 -49h-221l53 111l88 331h-221l-104 -393l8 -49h-221l51 111l88 331h-231z M440 621h222l45 174h-222z" />
<glyph unicode="$" horiz-adv-x="677" d="M-14 90l24 178l-8 86h221l-35 -86l-10 -69l19 -21h135l22 21l58 401l-19 21h-243l-78 88l86 616l104 90h68l22 21l4 24l-10 86h221l-35 -86l-4 -24l19 -21h69l74 -90l-24 -178l10 -86h-221l32 86l11 70l-19 20h-135l-22 -20l-56 -400l17 -20h245l76 -88l-86 -619 l-102 -90h-70l-22 -20l-5 -25l11 -86h-221l34 86l4 25l-18 20h-68z" />
<glyph unicode="%" horiz-adv-x="788" d="M88 1192l21 147l90 76h145l64 -76l-21 -147l-86 -78h-145zM117 0l51 113l334 1253l-8 49h221l-51 -112l-334 -1254l8 -49h-221zM154 1217l34 -41h95l47 41l14 96l-37 41h-94l-45 -41zM422 78l20 147l88 76h146l65 -76l-20 -147l-88 -78h-146zM485 102l37 -41h94l46 41 l14 97l-35 41h-94l-47 -41z" />
<glyph unicode="&#x26;" horiz-adv-x="690" d="M-35 90l74 531l100 88l-76 88l74 528l103 90h354l74 -90l-25 -178l10 -86h-221l35 86l10 70l-18 20h-137l-23 -20l-55 -400l16 -20h336l90 22l-33 -221l-84 23l-73 -531l-103 -90h-354zM156 199l18 -21h137l23 21l57 401l-18 21h-137l-23 -21z" />
<glyph unicode="'" horiz-adv-x="258" d="M121 1282l14 92l47 41h94l35 -41l-20 -137l-35 -88h-43l-10 88h-47z" />
<glyph unicode="(" horiz-adv-x="405" d="M-51 -90l225 1593l100 88h246l-24 -176h-138l-24 -20l-193 -1375l17 -20h137l-25 -178h-245z" />
<glyph unicode=")" horiz-adv-x="409" d="M-111 -178l25 178h137l25 20l192 1375l-16 20h-137l24 176h246l76 -88l-225 -1593l-101 -88h-246z" />
<glyph unicode="*" horiz-adv-x="622" d="M94 1079l115 70l-96 68l114 149l80 -55l17 104h176l-15 -102l93 55l75 -149l-116 -70l98 -68l-117 -149l-80 55l-14 -104h-176l14 104l-94 -57z" />
<glyph unicode="+" horiz-adv-x="655" d="M45 598l33 221l84 -22h90l12 90l-10 88h221l-35 -88l-12 -90h90l92 22l-32 -221l-84 23h-91l-12 -91l10 -88h-221l35 88l12 91h-90z" />
<glyph unicode="," horiz-adv-x="278" d="M-43 41l14 96l47 41h95l34 -41l-20 -137l-35 -88h-43l-10 88h-47z" />
<glyph unicode="-" horiz-adv-x="655" d="M45 596l33 221l84 -22h356l92 22l-32 -221l-84 22h-357z" />
<glyph unicode="." horiz-adv-x="278" d="M-43 41l14 96l47 41h95l34 -41l-14 -96l-47 -41h-94z" />
<glyph unicode="/" horiz-adv-x="438" d="M-80 0l53 113l332 1253l-8 49h221l-51 -112l-334 -1254l8 -49h-221z" />
<glyph unicode="0" horiz-adv-x="653" d="M-27 88l177 1239l100 88h354l76 -88l-176 -1239l-101 -88h-354zM166 197l18 -21h135l23 21l143 1020l-18 20h-135l-23 -20z" />
<glyph unicode="1" horiz-adv-x="378" d="M-4 0l35 88l157 1108h-88l97 221h200l-188 -1329l8 -88h-221z" />
<glyph unicode="2" horiz-adv-x="677" d="M-27 0l101 707l100 88h246l22 20l58 402l-19 20h-137l-22 -20l-11 -70l11 -86h-222l35 86l25 178l102 90h354l74 -90l-86 -618l-100 -89h-246l-25 -20l-55 -399l19 -21h137l22 21l11 69l-11 86h222l-35 -86l-39 -268h-531z" />
<glyph unicode="3" horiz-adv-x="634" d="M-33 90l25 178l-10 86h221l-35 -86l-10 -69l18 -21h135l23 21l55 399l-16 20h-68l-92 -22l33 221l84 -22h67l23 20l57 402l-18 20h-135l-23 -20l-10 -70l10 -86h-221l35 86l24 178l103 90h354l74 -90l-74 -530l-100 -88l75 -89l-73 -528l-103 -90h-354z" />
<glyph unicode="4" horiz-adv-x="677" d="M63 707l89 620l-11 88h221l-32 -88l-74 -512l18 -20h136l22 20l74 512l-10 88h221l-35 -88l-176 -1239l10 -88h-221l35 88l71 510l-16 20h-246z" />
<glyph unicode="5" horiz-adv-x="677" d="M-12 90l24 178l-10 86h221l-35 -86l-10 -69l19 -21h137l22 21l56 399l-17 20h-245l-76 89l100 708h531l-39 -268l10 -86h-221l34 86l11 70l-19 20h-137l-22 -20l-58 -402l19 -20h245l76 -88l-86 -617l-102 -90h-355z" />
<glyph unicode="6" horiz-adv-x="655" d="M-35 90l172 1235l103 90h354l74 -90l-25 -178l10 -86h-221l35 86l10 70l-18 20h-137l-23 -20l-57 -402l18 -20h246l76 -88l-86 -617l-103 -90h-354zM156 199l18 -21h137l23 21l55 399l-16 20h-137l-25 -20z" />
<glyph unicode="7" horiz-adv-x="604" d="M-70 0l68 104l475 1133h-264l-94 -20l61 198h486l-5 -178l-487 -1155l6 -82h-246z" />
<glyph unicode="8" horiz-adv-x="634" d="M-35 90l74 528l100 89l-76 88l74 530l105 90h354l74 -90l-74 -530l-100 -88l75 -89l-73 -528l-103 -90h-354zM158 199l18 -21h135l23 21l55 399l-16 20h-135l-25 -20zM244 815l18 -20h135l23 20l57 402l-18 20h-135l-23 -20z" />
<glyph unicode="9" horiz-adv-x="655" d="M-12 90l24 178l-10 86h221l-35 -86l-10 -69l19 -21h135l22 21l56 399l-17 20h-243l-76 89l86 618l102 90h354l74 -90l-172 -1235l-102 -90h-355zM264 815l19 -20h135l22 20l58 402l-19 20h-135l-22 -20z" />
<glyph unicode=":" horiz-adv-x="299" d="M31 483l12 97l47 41h94l35 -41l-12 -97l-47 -41h-94zM80 838l14 96l45 41h94l37 -41l-14 -96l-47 -41h-94z" />
<glyph unicode=";" horiz-adv-x="278" d="M-43 41l14 96l47 41h95l34 -41l-20 -137l-35 -88h-43l-10 88h-47zM8 395l12 97l48 40h94l35 -40l-13 -97l-47 -41h-94z" />
<glyph unicode="&#x3c;" horiz-adv-x="634" d="M33 655l352 -409l117 102l-264 307l350 308l-86 102z" />
<glyph unicode="=" horiz-adv-x="655" d="M20 420l31 221l86 -23h357l90 23l-31 -221l-84 22h-356zM72 774l30 221l84 -22h357l92 22l-31 -221l-86 23h-356z" />
<glyph unicode="&#x3e;" horiz-adv-x="634" d="M31 348l88 -102l467 409l-350 410l-119 -102l264 -308z" />
<glyph unicode="?" horiz-adv-x="634" d="M90 1061l35 86l25 178l102 90h354l74 -90l-86 -616l-100 -88h-113l-23 -21l-36 -252l-35 -88h-133l-9 88l52 361l100 88h113l24 20l55 400l-18 20h-135l-23 -20l-10 -70l8 -86h-221zM102 41l15 96l47 41h94l35 -41l-14 -96l-48 -41h-94z" />
<glyph unicode="@" horiz-adv-x="1130" d="M10 -90l201 1417l100 88h709l76 -88l-150 -1063l-100 -88h-490l-37 41l113 803l47 41h271l34 -41l-96 -690l19 -21h49l22 21l125 887l-18 20h-492l-22 -20l-168 -1197l16 -20h688l-47 -178h-774zM467 330l18 -21h50l22 21l82 577l-18 21h-50l-22 -21z" />
<glyph unicode="A" d="M-90 0l59 121l379 1214l-6 80h242l-31 -80l41 -1212l24 -123h-221l25 59l-10 271l-21 24h-153l-29 -22l-82 -273l4 -59h-221zM274 547l17 -15h94l21 11l-9 291l4 157l-36 -157z" />
<glyph unicode="B" horiz-adv-x="669" d="M-39 0l35 88l176 1241l-10 86h465l75 -88l-75 -530l-103 -88l78 -88l-76 -533l-100 -88h-465zM190 199l19 -21h135l23 21l57 401l-18 21h-136l-22 -21zM279 817l16 -20h135l25 20l55 402l-18 20h-136l-22 -20z" />
<glyph unicode="C" horiz-adv-x="661" d="M-27 88l177 1239l100 88h354l76 -88l-27 -178l11 -86h-222l35 86l10 70l-18 20h-137l-23 -20l-143 -1020l18 -21h138l22 21l10 69l-10 86h221l-35 -86l-26 -180l-101 -88h-354z" />
<glyph unicode="D" horiz-adv-x="675" d="M-39 0l33 88l176 1241l-8 86h465l75 -88l-176 -1239l-100 -88h-465zM188 199l19 -21h135l23 21l143 1020l-19 20h-135l-22 -20z" />
<glyph unicode="E" horiz-adv-x="645" d="M-39 0l35 88l176 1241l-10 86h530l4 -196l-90 20h-252l-22 -20l-56 -402l17 -20h69l93 22l-33 -221l-84 23h-70l-22 -21l-58 -401l19 -21h252l94 21l-61 -199h-531z" />
<glyph unicode="F" horiz-adv-x="645" d="M-39 0l35 88l176 1241l-10 86h530l4 -196l-90 20h-252l-22 -20l-56 -402l17 -20h69l91 22l-33 -221l-82 23h-70l-22 -21l-74 -512l10 -88h-221z" />
<glyph unicode="G" horiz-adv-x="675" d="M-27 88l177 1239l100 88h354l76 -88l-27 -178l11 -86h-222l35 86l10 70l-18 20h-135l-23 -20l-143 -1020l18 -21h136l22 21l47 331h-49l-14 179h286l-34 -88l-76 -533l-101 -88h-354z" />
<glyph unicode="H" horiz-adv-x="698" d="M-39 0l35 86l176 1241l-10 88h221l-35 -88l-74 -512l19 -20h135l23 20l73 512l-8 88h221l-35 -88l-176 -1241l11 -86h-222l33 86l72 512l-17 20h-135l-24 -20l-72 -512l10 -86h-221z" />
<glyph unicode="I" horiz-adv-x="344" d="M-39 0l35 86l176 1241l-10 88h221l-35 -88l-176 -1241l10 -86h-221z" />
<glyph unicode="J" horiz-adv-x="657" d="M-45 88l39 266l-10 88h221l-35 -88l-23 -157l19 -21h137l23 21l159 1130l-10 88h221l-34 -88l-177 -1239l-100 -88h-354z" />
<glyph unicode="K" horiz-adv-x="735" d="M-39 0l35 88l176 1239l-10 88h221l-35 -88l-59 -418l-35 -147l65 147l248 455l-4 51h262l-98 -104l-295 -535l129 -674l64 -102h-258l24 66l-90 471l-88 -160l-41 -289l10 -88h-221z" />
<glyph unicode="L" horiz-adv-x="645" d="M-39 0l35 86l176 1241l-10 88h221l-33 -88l-160 -1130l19 -21h250l94 21l-61 -197h-531z" />
<glyph unicode="M" horiz-adv-x="976" d="M-39 0l35 86l176 1241l-10 88h198l134 -678l323 678h199l-35 -88l-176 -1241l10 -86h-221l35 86l114 813l-258 -541h-90l-108 541l-115 -813l10 -86h-221z" />
<glyph unicode="N" horiz-adv-x="739" d="M-39 0l35 86l176 1241l-10 88h198l91 -745l14 -125l8 125l94 657l-10 88h221l-35 -88l-176 -1241l11 -86h-199l-90 745l-15 125l-8 -125l-94 -659l10 -86h-221z" />
<glyph unicode="O" horiz-adv-x="653" d="M-27 88l177 1239l100 88h354l76 -88l-176 -1239l-101 -88h-354zM166 197l18 -21h135l23 21l143 1020l-18 20h-135l-23 -20z" />
<glyph unicode="P" horiz-adv-x="655" d="M-39 0l35 86l176 1241l-10 88h465l75 -88l-88 -620l-100 -89h-246l-24 -20l-72 -512l10 -86h-221zM274 815l19 -20h135l23 20l57 402l-19 20h-135l-22 -20z" />
<glyph unicode="Q" horiz-adv-x="655" d="M-27 88l177 1239l102 88h352l78 -88l-176 -1239l-103 -88h-67l-23 -20l-22 -158h-176l22 158l-18 20h-68zM168 197l18 -21h136l22 21l143 1020l-18 20h-135l-23 -20z" />
<glyph unicode="R" horiz-adv-x="681" d="M-39 0l35 86l176 1241l-10 88h465l75 -88l-88 -620l-100 -89l2 -528l14 -90h-221l29 84l-2 518l-12 16h-56l-24 -20l-72 -512l10 -86h-221zM274 815l19 -20h137l23 20l57 402l-18 20h-138l-22 -20z" />
<glyph unicode="S" horiz-adv-x="677" d="M-16 88l26 178l-8 86h221l-35 -86l-10 -69l19 -21h135l22 21l56 401l-17 20h-243l-78 89l88 620l102 88h354l76 -88l-26 -180l10 -86h-221l32 86l11 70l-19 20h-135l-22 -20l-58 -402l19 -20h245l76 -88l-88 -619l-100 -88h-355z" />
<glyph unicode="T" horiz-adv-x="665" d="M88 1217l62 198h567l4 -198l-90 20h-115l-22 -20l-160 -1131l10 -86h-221l35 86l159 1131l-18 20h-117z" />
<glyph unicode="U" horiz-adv-x="698" d="M-4 88l176 1239l-10 88h221l-35 -88l-160 -1130l19 -21h137l23 21l159 1130l-10 88h221l-35 -88l-176 -1239l-100 -88h-354z" />
<glyph unicode="V" horiz-adv-x="688" d="M111 1415h221l-25 -59l8 -797l-6 -113l27 113l225 797l-4 59h221l-59 -121l-354 -1198l2 -96h-242l31 96l-23 1196z" />
<glyph unicode="W" horiz-adv-x="1128" d="M111 1415h231l-35 -74l10 -823l-6 -72l15 72l231 811l-6 86h229l-30 -86l6 -811l-6 -72l14 72l233 823l-10 74h232l-54 -110l-368 -1237l10 -68h-242l31 68l-14 725l6 71l-15 -71l-215 -725l11 -68h-242l31 68l-25 1232z" />
<glyph unicode="X" horiz-adv-x="688" d="M-90 0l53 68l260 641l-78 639l-34 67h258l-31 -63l37 -363l-4 -94l20 94l139 363l-12 63h260l-55 -69l-260 -637l80 -639l35 -70h-261l33 61l-37 367l4 94l-20 -94l-141 -367l12 -61h-258z" />
<glyph unicode="Y" d="M111 1415h258l-31 -61l51 -416l-2 -64l19 64l165 416l-12 61h260l-57 -78l-324 -733l-73 -516l10 -88h-221l34 88l74 524l-117 734z" />
<glyph unicode="Z" horiz-adv-x="636" d="M-47 0l27 178l479 1059h-252l-94 -20l61 198h510l-27 -176l-479 -1061h250l94 21l-61 -199h-508z" />
<glyph unicode="[" horiz-adv-x="428" d="M-63 -178l34 88l226 1593l-11 88h357l-25 -176h-137l-25 -20l-192 -1375l16 -20h137l-24 -178h-356z" />
<glyph unicode="\" horiz-adv-x="438" d="M96 0h221l-18 113l18 1253l25 49h-221l20 -112l-20 -1254z" />
<glyph unicode="]" horiz-adv-x="428" d="M-115 -178l25 178h137l25 20l192 1375l-16 20h-137l24 176h357l-35 -88l-226 -1593l11 -88h-357z" />
<glyph unicode="^" horiz-adv-x="860" d="M61 1006l89 -103l352 307l262 -307l117 103l-351 409z" />
<glyph unicode="_" horiz-adv-x="819" d="M-66 -199l31 222l84 -23h520l93 23l-31 -222l-86 23h-520z" />
<glyph unicode="`" horiz-adv-x="739" d="M350 1749l109 104l76 -49l88 -250l-58 -24z" />
<glyph unicode="a" d="M-90 0l59 121l379 1214l-6 80h242l-31 -80l41 -1212l24 -123h-221l25 59l-10 271l-21 24h-153l-29 -22l-82 -273l4 -59h-221zM274 547l17 -15h94l21 11l-9 291l4 157l-36 -157z" />
<glyph unicode="b" horiz-adv-x="669" d="M-39 0l35 88l176 1241l-10 86h465l75 -88l-75 -530l-103 -88l78 -88l-76 -533l-100 -88h-465zM190 199l19 -21h135l23 21l57 401l-18 21h-136l-22 -21zM279 817l16 -20h135l25 20l55 402l-18 20h-136l-22 -20z" />
<glyph unicode="c" horiz-adv-x="661" d="M-27 88l177 1239l100 88h354l76 -88l-27 -178l11 -86h-222l35 86l10 70l-18 20h-137l-23 -20l-143 -1020l18 -21h138l22 21l10 69l-10 86h221l-35 -86l-26 -180l-101 -88h-354z" />
<glyph unicode="d" horiz-adv-x="675" d="M-39 0l33 88l176 1241l-8 86h465l75 -88l-176 -1239l-100 -88h-465zM188 199l19 -21h135l23 21l143 1020l-19 20h-135l-22 -20z" />
<glyph unicode="e" horiz-adv-x="645" d="M-39 0l35 88l176 1241l-10 86h530l4 -196l-90 20h-252l-22 -20l-56 -402l17 -20h69l93 22l-33 -221l-84 23h-70l-22 -21l-58 -401l19 -21h252l94 21l-61 -199h-531z" />
<glyph unicode="f" horiz-adv-x="645" d="M-39 0l35 88l176 1241l-10 86h530l4 -196l-90 20h-252l-22 -20l-56 -402l17 -20h69l91 22l-33 -221l-82 23h-70l-22 -21l-74 -512l10 -88h-221z" />
<glyph unicode="g" horiz-adv-x="675" d="M-27 88l177 1239l100 88h354l76 -88l-27 -178l11 -86h-222l35 86l10 70l-18 20h-135l-23 -20l-143 -1020l18 -21h136l22 21l47 331h-49l-14 179h286l-34 -88l-76 -533l-101 -88h-354z" />
<glyph unicode="h" horiz-adv-x="698" d="M-39 0l35 86l176 1241l-10 88h221l-35 -88l-74 -512l19 -20h135l23 20l73 512l-8 88h221l-35 -88l-176 -1241l11 -86h-222l33 86l72 512l-17 20h-135l-24 -20l-72 -512l10 -86h-221z" />
<glyph unicode="i" horiz-adv-x="344" d="M-39 0l35 86l176 1241l-10 88h221l-35 -88l-176 -1241l10 -86h-221z" />
<glyph unicode="j" horiz-adv-x="657" d="M-45 88l39 266l-10 88h221l-35 -88l-23 -157l19 -21h137l23 21l159 1130l-10 88h221l-34 -88l-177 -1239l-100 -88h-354z" />
<glyph unicode="k" horiz-adv-x="735" d="M-39 0l35 88l176 1239l-10 88h221l-35 -88l-59 -418l-35 -147l65 147l248 455l-4 51h262l-98 -104l-295 -535l129 -674l64 -102h-258l24 66l-90 471l-88 -160l-41 -289l10 -88h-221z" />
<glyph unicode="l" horiz-adv-x="645" d="M-39 0l35 86l176 1241l-10 88h221l-33 -88l-160 -1130l19 -21h250l94 21l-61 -197h-531z" />
<glyph unicode="m" horiz-adv-x="976" d="M-39 0l35 86l176 1241l-10 88h198l134 -678l323 678h199l-35 -88l-176 -1241l10 -86h-221l35 86l114 813l-258 -541h-90l-108 541l-115 -813l10 -86h-221z" />
<glyph unicode="n" horiz-adv-x="739" d="M-39 0l35 86l176 1241l-10 88h198l91 -745l14 -125l8 125l94 657l-10 88h221l-35 -88l-176 -1241l11 -86h-199l-90 745l-15 125l-8 -125l-94 -659l10 -86h-221z" />
<glyph unicode="o" horiz-adv-x="653" d="M-27 88l177 1239l100 88h354l76 -88l-176 -1239l-101 -88h-354zM166 197l18 -21h135l23 21l143 1020l-18 20h-135l-23 -20z" />
<glyph unicode="p" horiz-adv-x="655" d="M-39 0l35 86l176 1241l-10 88h465l75 -88l-88 -620l-100 -89h-246l-24 -20l-72 -512l10 -86h-221zM274 815l19 -20h135l23 20l57 402l-19 20h-135l-22 -20z" />
<glyph unicode="q" horiz-adv-x="655" d="M-27 88l177 1239l102 88h352l78 -88l-176 -1239l-103 -88h-67l-23 -20l-22 -158h-176l22 158l-18 20h-68zM168 197l18 -21h136l22 21l143 1020l-18 20h-135l-23 -20z" />
<glyph unicode="r" horiz-adv-x="681" d="M-39 0l35 86l176 1241l-10 88h465l75 -88l-88 -620l-100 -89l2 -528l14 -90h-221l29 84l-2 518l-12 16h-56l-24 -20l-72 -512l10 -86h-221zM274 815l19 -20h137l23 20l57 402l-18 20h-138l-22 -20z" />
<glyph unicode="s" horiz-adv-x="677" d="M-16 88l26 178l-8 86h221l-35 -86l-10 -69l19 -21h135l22 21l56 401l-17 20h-243l-78 89l88 620l102 88h354l76 -88l-26 -180l10 -86h-221l32 86l11 70l-19 20h-135l-22 -20l-58 -402l19 -20h245l76 -88l-88 -619l-100 -88h-355z" />
<glyph unicode="t" horiz-adv-x="665" d="M88 1217l62 198h567l4 -198l-90 20h-115l-22 -20l-160 -1131l10 -86h-221l35 86l159 1131l-18 20h-117z" />
<glyph unicode="u" horiz-adv-x="698" d="M-4 88l176 1239l-10 88h221l-35 -88l-160 -1130l19 -21h137l23 21l159 1130l-10 88h221l-35 -88l-176 -1239l-100 -88h-354z" />
<glyph unicode="v" horiz-adv-x="688" d="M111 1415h221l-25 -59l8 -797l-6 -113l27 113l225 797l-4 59h221l-59 -121l-354 -1198l2 -96h-242l31 96l-23 1196z" />
<glyph unicode="w" horiz-adv-x="1128" d="M111 1415h231l-35 -74l10 -823l-6 -72l15 72l231 811l-6 86h229l-30 -86l6 -811l-6 -72l14 72l233 823l-10 74h232l-54 -110l-368 -1237l10 -68h-242l31 68l-14 725l6 71l-15 -71l-215 -725l11 -68h-242l31 68l-25 1232z" />
<glyph unicode="x" horiz-adv-x="688" d="M-90 0l53 68l260 641l-78 639l-34 67h258l-31 -63l37 -363l-4 -94l20 94l139 363l-12 63h260l-55 -69l-260 -637l80 -639l35 -70h-261l33 61l-37 367l4 94l-20 -94l-141 -367l12 -61h-258z" />
<glyph unicode="y" d="M111 1415h258l-31 -61l51 -416l-2 -64l19 64l165 416l-12 61h260l-57 -78l-324 -733l-73 -516l10 -88h-221l34 88l74 524l-117 734z" />
<glyph unicode="z" horiz-adv-x="634" d="M-47 0l27 178l479 1059h-252l-94 -20l61 198h510l-27 -176l-479 -1061h250l94 21l-61 -199h-508z" />
<glyph unicode="{" horiz-adv-x="446" d="M-10 -90l100 715l-70 82l95 81l100 715l100 88h246l-24 -176h-138l-24 -20l-193 -1375l17 -20h137l-25 -178h-245z" />
<glyph unicode="|" horiz-adv-x="344" d="M-63 -178l34 86l226 1597l-11 88h222l-35 -88l-226 -1597l11 -86h-221z" />
<glyph unicode="}" horiz-adv-x="446" d="M-115 -178l25 178h137l25 20l192 1375l-16 20h-137l24 176h246l76 -88l-101 -715l70 -81l-94 -82l-101 -715l-100 -88h-246z" />
<glyph unicode="~" horiz-adv-x="501" d="M29 625l69 10l62 27l108 -60h94l66 57l37 82l-39 45l-33 -55l-57 -26l-109 59h-96l-65 -57z" />
<glyph unicode="&#xa1;" horiz-adv-x="344" d="M-39 0l35 88l115 815l59 252h131l-14 -252l-115 -815l10 -88h-221zM164 1278l14 96l47 41h94l35 -41l-14 -96l-47 -41h-94z" />
<glyph unicode="&#xa2;" horiz-adv-x="661" d="M4 293l115 829l102 88h207l61 205h91l-62 -205h57l74 -88l-26 -198l12 -66h-199l21 139l-181 -614h74l23 20l22 156h199l-33 -65l-26 -201l-103 -88h-207l-61 -205h-90l61 205h-57zM197 418l180 616h-74l-22 -20z" />
<glyph unicode="&#xa3;" horiz-adv-x="716" d="M-18 0l26 178l195 422l-19 21h-69l-90 -23l32 221l82 -22h70l24 20l72 510l101 88h337l5 -196l-91 20h-170l-22 -20l-55 -402l16 -20h70l90 22l-33 -221l-82 23h-70l-22 -21l-189 -410l11 -12h309l94 21l-61 -199h-561z" />
<glyph unicode="&#xa5;" d="M0 487l12 82h246l4 43l-6 39h-233l12 82h209l-99 613l-34 69h258l-31 -61l51 -416l-2 -64l19 64l165 416l-12 61h260l-57 -78l-266 -604h206l-12 -82h-231l-21 -47l-4 -35h246l-12 -82h-246l-60 -419l13 -68h-221l32 68l60 419h-246z" />
<glyph unicode="&#xa8;" horiz-adv-x="819" d="M326 1571l14 96l47 41h94l35 -41l-14 -96l-47 -41h-95zM559 1571l14 96l48 41h94l35 -41l-15 -96l-47 -41h-94z" />
<glyph unicode="&#xab;" horiz-adv-x="1024" d="M33 655l352 -409l117 102l-264 307l350 308l-86 102zM422 655l352 -409l117 102l-264 307l350 308l-86 102z" />
<glyph unicode="&#xad;" horiz-adv-x="655" d="M45 596l33 221l84 -22h356l92 22l-32 -221l-84 22h-357z" />
<glyph unicode="&#xaf;" horiz-adv-x="942" d="M326 1571l14 94l47 41h451l34 -41l-14 -94l-47 -41h-451z" />
<glyph unicode="&#xb0;" horiz-adv-x="360" d="M98 1192l21 147l90 76h145l64 -76l-21 -147l-86 -78h-145zM164 1217l35 -41h94l47 41l14 96l-37 41h-94l-45 -41z" />
<glyph unicode="&#xb4;" horiz-adv-x="739" d="M354 1554l158 250l92 49l76 -104l-277 -219z" />
<glyph unicode="&#xb7;" horiz-adv-x="299" d="M55 659l13 95l47 41h94l35 -41l-13 -95l-47 -41h-94z" />
<glyph unicode="&#xb8;" horiz-adv-x="655" d="M106 -205l87 74l12 74l-51 57h108l51 -57l-12 -74l-49 -55l-72 -41z" />
<glyph unicode="&#xbb;" horiz-adv-x="1024" d="M31 348l88 -102l467 409l-350 410l-119 -102l264 -308zM420 348l88 -102l467 409l-350 410l-119 -102l264 -308z" />
<glyph unicode="&#xbf;" horiz-adv-x="634" d="M-45 90l86 617l100 88h113l22 20l37 252l35 88h133l8 -88l-51 -360l-100 -89h-113l-24 -20l-56 -399l19 -21h135l23 21l10 69l-8 86h221l-35 -86l-25 -178l-102 -90h-354zM342 1278l14 96l47 41h95l34 -41l-14 -96l-47 -41h-94z" />
<glyph unicode="&#xc0;" d="M-90 0l59 121l379 1214l-6 80h242l-31 -80l41 -1212l24 -123h-221l25 59l-10 271l-21 24h-153l-29 -22l-82 -273l4 -59h-221zM274 547l17 -15h94l21 11l-9 291l4 157l-36 -157zM358 1749l109 104l76 -49l88 -250l-58 -24z" />
<glyph unicode="&#xc1;" d="M-90 0l59 121l379 1214l-6 80h242l-31 -80l41 -1212l24 -123h-221l25 59l-10 271l-21 24h-153l-29 -22l-82 -273l4 -59h-221zM274 547l17 -15h94l21 11l-9 291l4 157l-36 -157zM354 1554l158 250l92 49l76 -104l-277 -219z" />
<glyph unicode="&#xc2;" d="M-90 0l59 121l379 1214l-6 80h242l-31 -80l41 -1212l24 -123h-221l25 59l-10 271l-21 24h-153l-29 -22l-82 -273l4 -59h-221zM274 547l17 -15h94l21 11l-9 291l4 157l-36 -157zM279 1534h110l103 174h24l53 -174h111l-68 199l-82 96h-20l-111 -96z" />
<glyph unicode="&#xc3;" d="M-90 0l59 121l379 1214l-6 80h242l-31 -80l41 -1212l24 -123h-221l25 59l-10 271l-21 24h-153l-29 -22l-82 -273l4 -59h-221zM274 547l17 -15h94l21 11l-9 291l4 157l-36 -157zM274 1577l68 10l61 27l109 -60h94l66 58l39 82l-39 45l-35 -56l-57 -26l-109 59h-96l-66 -57 z" />
<glyph unicode="&#xc4;" d="M-90 0l59 121l379 1214l-6 80h242l-31 -80l41 -1212l24 -123h-221l25 59l-10 271l-21 24h-153l-29 -22l-82 -273l4 -59h-221zM274 547l17 -15h94l21 11l-9 291l4 157l-36 -157zM279 1571l14 96l47 41h94l35 -41l-14 -96l-47 -41h-95zM512 1571l14 96l47 41h95l34 -41 l-14 -96l-47 -41h-94z" />
<glyph unicode="&#xc5;" d="M-90 0l59 121l379 1214l-6 80h242l-31 -80l41 -1212l24 -123h-221l25 59l-10 271l-21 24h-153l-29 -22l-82 -273l4 -59h-221zM274 547l17 -15h94l21 11l-9 291l4 157l-36 -157zM340 1616l20 147l91 76h145l63 -76l-20 -147l-86 -78h-145zM406 1640l34 -41h95l47 41l14 97 l-37 41h-94l-45 -41z" />
<glyph unicode="&#xc6;" horiz-adv-x="1056" d="M-90 0l78 121l549 1214l6 80h561l4 -196l-90 20h-252l-23 -20l-55 -402l17 -20h69l92 22l-32 -221l-84 23h-70l-16 -15l-46 -428h252l95 21l-62 -199h-530l35 88l36 262l-2 4h-153l-33 -22l-119 -273l-6 -59h-221zM352 547l15 -15h94l10 7l61 430l-49 -135z" />
<glyph unicode="&#xc7;" horiz-adv-x="661" d="M-27 88l177 1239l100 88h354l76 -88l-27 -178l11 -86h-222l35 86l10 70l-18 20h-137l-23 -20l-143 -1020l18 -21h138l22 21l10 69l-10 86h221l-35 -86l-26 -180l-101 -88h-139l49 -55l-12 -76l-49 -55l-72 -41l-74 22l87 74l12 76l-49 55h-107z" />
<glyph unicode="&#xc8;" horiz-adv-x="645" d="M-39 0l35 88l176 1241l-10 86h530l4 -196l-90 20h-252l-22 -20l-56 -402l17 -20h69l93 22l-33 -221l-84 23h-70l-22 -21l-58 -401l19 -21h252l94 21l-61 -199h-531zM317 1749l109 104l76 -49l88 -250l-58 -24z" />
<glyph unicode="&#xc9;" horiz-adv-x="645" d="M-39 0l35 88l176 1241l-10 86h530l4 -196l-90 20h-252l-22 -20l-56 -402l17 -20h69l93 22l-33 -221l-84 23h-70l-22 -21l-58 -401l19 -21h252l94 21l-61 -199h-531zM313 1554l158 250l92 49l76 -104l-277 -219z" />
<glyph unicode="&#xca;" horiz-adv-x="645" d="M-39 0l35 88l176 1241l-10 86h530l4 -196l-90 20h-252l-22 -20l-56 -402l17 -20h69l93 22l-33 -221l-84 23h-70l-22 -21l-58 -401l19 -21h252l94 21l-61 -199h-531zM238 1534h110l103 174h24l53 -174h111l-68 199l-82 96h-20l-111 -96z" />
<glyph unicode="&#xcb;" horiz-adv-x="645" d="M-39 0l35 88l176 1241l-10 86h530l4 -196l-90 20h-252l-22 -20l-56 -402l17 -20h69l93 22l-33 -221l-84 23h-70l-22 -21l-58 -401l19 -21h252l94 21l-61 -199h-531zM238 1571l14 96l47 41h94l35 -41l-14 -96l-47 -41h-95zM471 1571l14 96l47 41h95l35 -41l-15 -96 l-47 -41h-94z" />
<glyph unicode="&#xcc;" horiz-adv-x="344" d="M-39 0l35 86l176 1241l-10 88h221l-35 -88l-176 -1241l10 -86h-221zM119 1749l108 104l76 -49l88 -250l-57 -24z" />
<glyph unicode="&#xcd;" horiz-adv-x="344" d="M-39 0l35 86l176 1241l-10 88h221l-35 -88l-176 -1241l10 -86h-221zM190 1554l158 250l92 49l76 -104l-276 -219z" />
<glyph unicode="&#xce;" horiz-adv-x="344" d="M-39 0l35 86l176 1241l-10 88h221l-35 -88l-176 -1241l10 -86h-221zM88 1534h111l102 174h25l53 -174h110l-67 199l-82 96h-21l-110 -96z" />
<glyph unicode="&#xcf;" horiz-adv-x="344" d="M-39 0l35 86l176 1241l-10 88h221l-35 -88l-176 -1241l10 -86h-221zM88 1571l14 96l48 41h94l35 -41l-15 -96l-47 -41h-94zM322 1571l14 96l47 41h94l35 -41l-14 -96l-47 -41h-95z" />
<glyph unicode="&#xd0;" horiz-adv-x="692" d="M-23 0l33 88l74 512l-18 21h-68l25 176h67l25 20l71 512l-8 86h465l76 -88l-176 -1239l-101 -88h-465zM205 199l18 -21h135l23 21l143 1020l-18 20h-135l-23 -20l-55 -402l16 -20h68l-25 -176h-67l-23 -21z" />
<glyph unicode="&#xd1;" horiz-adv-x="739" d="M-39 0l35 86l176 1241l-10 88h198l91 -745l14 -125l8 125l94 657l-10 88h221l-35 -88l-176 -1241l11 -86h-199l-90 745l-15 125l-8 -125l-94 -659l10 -86h-221zM279 1577l67 10l62 27l108 -60h94l66 58l39 82l-39 45l-35 -56l-57 -26l-109 59h-96l-66 -57z" />
<glyph unicode="&#xd2;" horiz-adv-x="653" d="M-27 88l177 1239l100 88h354l76 -88l-176 -1239l-101 -88h-354zM166 197l18 -21h135l23 21l143 1020l-18 20h-135l-23 -20zM322 1749l108 104l76 -49l88 -250l-57 -24z" />
<glyph unicode="&#xd3;" horiz-adv-x="653" d="M-27 88l177 1239l100 88h354l76 -88l-176 -1239l-101 -88h-354zM166 197l18 -21h135l23 21l143 1020l-18 20h-135l-23 -20zM317 1554l158 250l92 49l76 -104l-276 -219z" />
<glyph unicode="&#xd4;" horiz-adv-x="653" d="M-27 88l177 1239l100 88h354l76 -88l-176 -1239l-101 -88h-354zM166 197l18 -21h135l23 21l143 1020l-18 20h-135l-23 -20zM242 1534h110l103 174h24l53 -174h111l-68 199l-81 96h-21l-111 -96z" />
<glyph unicode="&#xd5;" horiz-adv-x="653" d="M-27 88l177 1239l100 88h354l76 -88l-176 -1239l-101 -88h-354zM166 197l18 -21h135l23 21l143 1020l-18 20h-135l-23 -20zM248 1577l67 10l62 27l108 -60h95l65 58l39 82l-39 45l-35 -56l-57 -26l-109 59h-96l-65 -57z" />
<glyph unicode="&#xd6;" horiz-adv-x="653" d="M-27 88l177 1239l100 88h354l76 -88l-176 -1239l-101 -88h-354zM166 197l18 -21h135l23 21l143 1020l-18 20h-135l-23 -20zM242 1571l14 96l47 41h94l35 -41l-14 -96l-47 -41h-95zM475 1571l14 96l48 41h94l35 -41l-15 -96l-47 -41h-94z" />
<glyph unicode="&#xd8;" horiz-adv-x="653" d="M-27 88l177 1239l100 88h278l23 62h123l-37 -101l43 -49l-176 -1239l-101 -88h-278l-23 -61h-122l36 100zM190 176h129l23 21l88 622zM221 588l240 649h-129l-23 -20z" />
<glyph unicode="&#xd9;" horiz-adv-x="698" d="M-4 88l176 1239l-10 88h221l-35 -88l-160 -1130l19 -21h137l23 21l159 1130l-10 88h221l-35 -88l-176 -1239l-100 -88h-354zM322 1749l108 104l76 -49l88 -250l-57 -24z" />
<glyph unicode="&#xda;" horiz-adv-x="698" d="M-4 88l176 1239l-10 88h221l-35 -88l-160 -1130l19 -21h137l23 21l159 1130l-10 88h221l-35 -88l-176 -1239l-100 -88h-354zM358 1554l158 250l92 49l76 -104l-276 -219z" />
<glyph unicode="&#xdb;" horiz-adv-x="698" d="M-4 88l176 1239l-10 88h221l-35 -88l-160 -1130l19 -21h137l23 21l159 1130l-10 88h221l-35 -88l-176 -1239l-100 -88h-354zM266 1534h111l102 174h25l53 -174h111l-68 199l-82 96h-20l-111 -96z" />
<glyph unicode="&#xdc;" horiz-adv-x="698" d="M-4 88l176 1239l-10 88h221l-35 -88l-160 -1130l19 -21h137l23 21l159 1130l-10 88h221l-35 -88l-176 -1239l-100 -88h-354zM264 1571l15 96l47 41h94l35 -41l-15 -96l-47 -41h-94zM500 1571l14 96l47 41h94l35 -41l-14 -96l-47 -41h-94z" />
<glyph unicode="&#xdd;" d="M111 1415h258l-31 -61l51 -416l-2 -64l19 64l165 416l-12 61h260l-57 -78l-324 -733l-73 -516l10 -88h-221l34 88l74 524l-117 734zM377 1554l158 250l92 49l75 -104l-276 -219z" />
<glyph unicode="&#xde;" horiz-adv-x="655" d="M-39 0l35 86l176 1241l-10 88h221l-35 -88l-29 -201l17 -20h246l75 -88l-86 -621l-100 -88h-246l-24 -20l-29 -203l10 -86h-221zM231 506l19 -21h135l23 21l57 401l-19 21h-135l-22 -21z" />
<glyph unicode="&#xe0;" d="M-90 0l59 121l379 1214l-6 80h242l-31 -80l41 -1212l24 -123h-221l25 59l-10 271l-21 24h-153l-29 -22l-82 -273l4 -59h-221zM274 547l17 -15h94l21 11l-9 291l4 157l-36 -157zM358 1749l109 104l76 -49l88 -250l-58 -24z" />
<glyph unicode="&#xe1;" d="M-90 0l59 121l379 1214l-6 80h242l-31 -80l41 -1212l24 -123h-221l25 59l-10 271l-21 24h-153l-29 -22l-82 -273l4 -59h-221zM274 547l17 -15h94l21 11l-9 291l4 157l-36 -157zM354 1554l158 250l92 49l76 -104l-277 -219z" />
<glyph unicode="&#xe2;" d="M-90 0l59 121l379 1214l-6 80h242l-31 -80l41 -1212l24 -123h-221l25 59l-10 271l-21 24h-153l-29 -22l-82 -273l4 -59h-221zM274 547l17 -15h94l21 11l-9 291l4 157l-36 -157zM279 1534h110l103 174h24l53 -174h111l-68 199l-82 96h-20l-111 -96z" />
<glyph unicode="&#xe3;" d="M-90 0l59 121l379 1214l-6 80h242l-31 -80l41 -1212l24 -123h-221l25 59l-10 271l-21 24h-153l-29 -22l-82 -273l4 -59h-221zM274 547l17 -15h94l21 11l-9 291l4 157l-36 -157zM274 1577l68 10l61 27l109 -60h94l66 58l39 82l-39 45l-35 -56l-57 -26l-109 59h-96l-66 -57 z" />
<glyph unicode="&#xe4;" d="M-90 0l59 121l379 1214l-6 80h242l-31 -80l41 -1212l24 -123h-221l25 59l-10 271l-21 24h-153l-29 -22l-82 -273l4 -59h-221zM274 547l17 -15h94l21 11l-9 291l4 157l-36 -157zM279 1571l14 96l47 41h94l35 -41l-14 -96l-47 -41h-95zM512 1571l14 96l47 41h95l34 -41 l-14 -96l-47 -41h-94z" />
<glyph unicode="&#xe5;" d="M-90 0l59 121l379 1214l-6 80h242l-31 -80l41 -1212l24 -123h-221l25 59l-10 271l-21 24h-153l-29 -22l-82 -273l4 -59h-221zM274 547l17 -15h94l21 11l-9 291l4 157l-36 -157zM340 1616l20 147l91 76h145l63 -76l-20 -147l-86 -78h-145zM406 1640l34 -41h95l47 41l14 97 l-37 41h-94l-45 -41z" />
<glyph unicode="&#xe6;" horiz-adv-x="1056" d="M-90 0l78 121l549 1214l6 80h561l4 -196l-90 20h-252l-23 -20l-55 -402l17 -20h69l92 22l-32 -221l-84 23h-70l-16 -15l-46 -428h252l95 21l-62 -199h-530l35 88l36 262l-2 4h-153l-33 -22l-119 -273l-6 -59h-221zM352 547l15 -15h94l10 7l61 430l-49 -135z" />
<glyph unicode="&#xe7;" horiz-adv-x="661" d="M-27 88l177 1239l100 88h354l76 -88l-27 -178l11 -86h-222l35 86l10 70l-18 20h-137l-23 -20l-143 -1020l18 -21h138l22 21l10 69l-10 86h221l-35 -86l-26 -180l-101 -88h-139l49 -55l-12 -76l-49 -55l-72 -41l-74 22l87 74l12 76l-49 55h-107z" />
<glyph unicode="&#xe8;" horiz-adv-x="645" d="M-39 0l35 88l176 1241l-10 86h530l4 -196l-90 20h-252l-22 -20l-56 -402l17 -20h69l93 22l-33 -221l-84 23h-70l-22 -21l-58 -401l19 -21h252l94 21l-61 -199h-531zM317 1749l109 104l76 -49l88 -250l-58 -24z" />
<glyph unicode="&#xe9;" horiz-adv-x="645" d="M-39 0l35 88l176 1241l-10 86h530l4 -196l-90 20h-252l-22 -20l-56 -402l17 -20h69l93 22l-33 -221l-84 23h-70l-22 -21l-58 -401l19 -21h252l94 21l-61 -199h-531zM313 1554l158 250l92 49l76 -104l-277 -219z" />
<glyph unicode="&#xea;" horiz-adv-x="645" d="M-39 0l35 88l176 1241l-10 86h530l4 -196l-90 20h-252l-22 -20l-56 -402l17 -20h69l93 22l-33 -221l-84 23h-70l-22 -21l-58 -401l19 -21h252l94 21l-61 -199h-531zM238 1534h110l103 174h24l53 -174h111l-68 199l-82 96h-20l-111 -96z" />
<glyph unicode="&#xeb;" horiz-adv-x="645" d="M-39 0l35 88l176 1241l-10 86h530l4 -196l-90 20h-252l-22 -20l-56 -402l17 -20h69l93 22l-33 -221l-84 23h-70l-22 -21l-58 -401l19 -21h252l94 21l-61 -199h-531zM238 1571l14 96l47 41h94l35 -41l-14 -96l-47 -41h-95zM471 1571l14 96l47 41h95l35 -41l-15 -96 l-47 -41h-94z" />
<glyph unicode="&#xec;" horiz-adv-x="344" d="M-39 0l35 86l176 1241l-10 88h221l-35 -88l-176 -1241l10 -86h-221zM119 1749l108 104l76 -49l88 -250l-57 -24z" />
<glyph unicode="&#xed;" horiz-adv-x="344" d="M-39 0l35 86l176 1241l-10 88h221l-35 -88l-176 -1241l10 -86h-221zM190 1554l158 250l92 49l76 -104l-276 -219z" />
<glyph unicode="&#xee;" horiz-adv-x="344" d="M-39 0l35 86l176 1241l-10 88h221l-35 -88l-176 -1241l10 -86h-221zM88 1534h111l102 174h25l53 -174h110l-67 199l-82 96h-21l-110 -96z" />
<glyph unicode="&#xef;" horiz-adv-x="344" d="M-39 0l35 86l176 1241l-10 88h221l-35 -88l-176 -1241l10 -86h-221zM88 1571l14 96l48 41h94l35 -41l-15 -96l-47 -41h-94zM322 1571l14 96l47 41h94l35 -41l-14 -96l-47 -41h-95z" />
<glyph unicode="&#xf0;" horiz-adv-x="692" d="M-23 0l33 88l74 512l-18 21h-68l25 176h67l25 20l71 512l-8 86h465l76 -88l-176 -1239l-101 -88h-465zM205 199l18 -21h135l23 21l143 1020l-18 20h-135l-23 -20l-55 -402l16 -20h68l-25 -176h-67l-23 -21z" />
<glyph unicode="&#xf1;" horiz-adv-x="739" d="M-39 0l35 86l176 1241l-10 88h198l91 -745l14 -125l8 125l94 657l-10 88h221l-35 -88l-176 -1241l11 -86h-199l-90 745l-15 125l-8 -125l-94 -659l10 -86h-221zM279 1577l67 10l62 27l108 -60h94l66 58l39 82l-39 45l-35 -56l-57 -26l-109 59h-96l-66 -57z" />
<glyph unicode="&#xf2;" horiz-adv-x="653" d="M-27 88l177 1239l100 88h354l76 -88l-176 -1239l-101 -88h-354zM166 197l18 -21h135l23 21l143 1020l-18 20h-135l-23 -20zM322 1749l108 104l76 -49l88 -250l-57 -24z" />
<glyph unicode="&#xf3;" horiz-adv-x="653" d="M-27 88l177 1239l100 88h354l76 -88l-176 -1239l-101 -88h-354zM166 197l18 -21h135l23 21l143 1020l-18 20h-135l-23 -20zM317 1554l158 250l92 49l76 -104l-276 -219z" />
<glyph unicode="&#xf4;" horiz-adv-x="653" d="M-27 88l177 1239l100 88h354l76 -88l-176 -1239l-101 -88h-354zM166 197l18 -21h135l23 21l143 1020l-18 20h-135l-23 -20zM242 1534h110l103 174h24l53 -174h111l-68 199l-81 96h-21l-111 -96z" />
<glyph unicode="&#xf5;" horiz-adv-x="653" d="M-27 88l177 1239l100 88h354l76 -88l-176 -1239l-101 -88h-354zM166 197l18 -21h135l23 21l143 1020l-18 20h-135l-23 -20zM248 1577l67 10l62 27l108 -60h95l65 58l39 82l-39 45l-35 -56l-57 -26l-109 59h-96l-65 -57z" />
<glyph unicode="&#xf6;" horiz-adv-x="653" d="M-27 88l177 1239l100 88h354l76 -88l-176 -1239l-101 -88h-354zM166 197l18 -21h135l23 21l143 1020l-18 20h-135l-23 -20zM242 1571l14 96l47 41h94l35 -41l-14 -96l-47 -41h-95zM475 1571l14 96l48 41h94l35 -41l-15 -96l-47 -41h-94z" />
<glyph unicode="&#xf7;" horiz-adv-x="739" d="M25 596l32 221l84 -22h482l92 22l-33 -221l-84 22h-481zM162 293l20 147l88 76h146l65 -76l-20 -147l-88 -78h-146zM225 317l35 -41h94l47 41l15 97l-35 41h-94l-47 -41zM256 975l20 147l91 76h145l63 -76l-20 -147l-86 -78h-145zM322 999l34 -41h95l47 41l14 97l-37 41 h-94l-45 -41z" />
<glyph unicode="&#xf8;" horiz-adv-x="653" d="M-27 88l177 1239l100 88h278l23 62h123l-37 -101l43 -49l-176 -1239l-101 -88h-278l-23 -61h-122l36 100zM190 176h129l23 21l88 622zM221 588l240 649h-129l-23 -20z" />
<glyph unicode="&#xf9;" horiz-adv-x="698" d="M-4 88l176 1239l-10 88h221l-35 -88l-160 -1130l19 -21h137l23 21l159 1130l-10 88h221l-35 -88l-176 -1239l-100 -88h-354zM322 1749l108 104l76 -49l88 -250l-57 -24z" />
<glyph unicode="&#xfa;" horiz-adv-x="698" d="M-4 88l176 1239l-10 88h221l-35 -88l-160 -1130l19 -21h137l23 21l159 1130l-10 88h221l-35 -88l-176 -1239l-100 -88h-354zM358 1554l158 250l92 49l76 -104l-276 -219z" />
<glyph unicode="&#xfb;" horiz-adv-x="698" d="M-4 88l176 1239l-10 88h221l-35 -88l-160 -1130l19 -21h137l23 21l159 1130l-10 88h221l-35 -88l-176 -1239l-100 -88h-354zM266 1534h111l102 174h25l53 -174h111l-68 199l-82 96h-20l-111 -96z" />
<glyph unicode="&#xfc;" horiz-adv-x="698" d="M-4 88l176 1239l-10 88h221l-35 -88l-160 -1130l19 -21h137l23 21l159 1130l-10 88h221l-35 -88l-176 -1239l-100 -88h-354zM264 1571l15 96l47 41h94l35 -41l-15 -96l-47 -41h-94zM500 1571l14 96l47 41h94l35 -41l-14 -96l-47 -41h-94z" />
<glyph unicode="&#xfd;" d="M111 1415h258l-31 -61l51 -416l-2 -64l19 64l165 416l-12 61h260l-57 -78l-324 -733l-73 -516l10 -88h-221l34 88l74 524l-117 734zM377 1554l158 250l92 49l75 -104l-276 -219z" />
<glyph unicode="&#xfe;" horiz-adv-x="655" d="M-39 0l35 86l176 1241l-10 88h221l-35 -88l-29 -201l17 -20h246l75 -88l-86 -621l-100 -88h-246l-24 -20l-29 -203l10 -86h-221zM231 506l19 -21h135l23 21l57 401l-19 21h-135l-22 -21z" />
<glyph unicode="&#xff;" d="M111 1415h258l-31 -61l51 -416l-2 -64l19 64l165 416l-12 61h260l-57 -78l-324 -733l-73 -516l10 -88h-221l34 88l74 524l-117 734zM279 1571l14 96l47 41h94l35 -41l-14 -96l-47 -41h-95zM514 1571l14 96l47 41h95l35 -41l-15 -96l-47 -41h-94z" />
<glyph unicode="&#x152;" horiz-adv-x="974" d="M-27 88l177 1239l100 88h772l4 -196l-90 20h-250l-22 -20l-56 -402l17 -20h67l92 22l-32 -221l-84 23h-68l-22 -21l-58 -401l19 -21h249l95 21l-62 -199h-772zM166 197l18 -21h135l23 21l143 1020l-18 20h-135l-23 -20z" />
<glyph unicode="&#x153;" horiz-adv-x="974" d="M-27 88l177 1239l100 88h772l4 -196l-90 20h-250l-22 -20l-56 -402l17 -20h67l92 22l-32 -221l-84 23h-68l-22 -21l-58 -401l19 -21h249l95 21l-62 -199h-772zM166 197l18 -21h135l23 21l143 1020l-18 20h-135l-23 -20z" />
<glyph unicode="&#x178;" d="M111 1415h258l-31 -61l51 -416l-2 -64l19 64l165 416l-12 61h260l-57 -78l-324 -733l-73 -516l10 -88h-221l34 88l74 524l-117 734zM279 1571l14 96l47 41h94l35 -41l-14 -96l-47 -41h-95zM514 1571l14 96l47 41h95l35 -41l-15 -96l-47 -41h-94z" />
<glyph unicode="&#x2c6;" horiz-adv-x="811" d="M322 1534h110l103 174h24l53 -174h111l-68 199l-82 96h-20l-111 -96z" />
<glyph unicode="&#x2dc;" horiz-adv-x="829" d="M328 1577l67 10l62 27l108 -60h94l66 58l39 82l-39 45l-35 -56l-57 -26l-109 59h-96l-66 -57z" />
<glyph unicode="&#x2000;" horiz-adv-x="926" />
<glyph unicode="&#x2001;" horiz-adv-x="1853" />
<glyph unicode="&#x2002;" horiz-adv-x="926" />
<glyph unicode="&#x2003;" horiz-adv-x="1853" />
<glyph unicode="&#x2004;" horiz-adv-x="617" />
<glyph unicode="&#x2005;" horiz-adv-x="463" />
<glyph unicode="&#x2006;" horiz-adv-x="308" />
<glyph unicode="&#x2007;" horiz-adv-x="308" />
<glyph unicode="&#x2008;" horiz-adv-x="231" />
<glyph unicode="&#x2009;" horiz-adv-x="370" />
<glyph unicode="&#x200a;" horiz-adv-x="102" />
<glyph unicode="&#x2010;" horiz-adv-x="655" d="M45 596l33 221l84 -22h356l92 22l-32 -221l-84 22h-357z" />
<glyph unicode="&#x2011;" horiz-adv-x="655" d="M45 596l33 221l84 -22h356l92 22l-32 -221l-84 22h-357z" />
<glyph unicode="&#x2012;" horiz-adv-x="655" d="M45 596l33 221l84 -22h356l92 22l-32 -221l-84 22h-357z" />
<glyph unicode="&#x2013;" horiz-adv-x="819" d="M45 596l33 221l84 -22h520l92 22l-33 -221l-84 22h-520z" />
<glyph unicode="&#x2014;" horiz-adv-x="983" d="M45 596l33 221l84 -22h684l92 22l-33 -221l-84 22h-684z" />
<glyph unicode="&#x2019;" horiz-adv-x="258" d="M121 1278l14 96l47 41h94l35 -41l-20 -137l-35 -88h-43l-10 88h-47z" />
<glyph unicode="&#x201a;" horiz-adv-x="258" d="M-53 41l14 96l47 41h94l35 -41l-20 -137l-35 -88h-43l-10 88h-47z" />
<glyph unicode="&#x201c;" horiz-adv-x="518" d="M109 1190l22 137l35 88h43l10 -86h47l35 -41l-16 -98l-47 -41h-95zM367 1190l22 137l35 88h43l10 -88h47l33 -45l-14 -92l-47 -41h-95z" />
<glyph unicode="&#x201d;" horiz-adv-x="516" d="M121 1278l14 96l47 41h94l35 -41l-20 -137l-35 -88h-43l-10 88h-47zM379 1278l14 96l47 41h95l34 -41l-20 -137l-35 -88h-43l-10 88h-47z" />
<glyph unicode="&#x2022;" horiz-adv-x="299" d="M55 659l13 95l47 41h94l35 -41l-13 -95l-47 -41h-94z" />
<glyph unicode="&#x2026;" horiz-adv-x="856" d="M246 41l14 96l47 41h94l35 -41l-14 -96l-47 -41h-94zM524 41l15 96l47 41h94l35 -41l-15 -96l-47 -41h-94z" />
<glyph unicode="&#x202f;" horiz-adv-x="370" />
<glyph unicode="&#x2039;" horiz-adv-x="634" d="M33 655l352 -409l117 102l-264 307l350 308l-86 102z" />
<glyph unicode="&#x203a;" horiz-adv-x="634" d="M31 348l88 -102l467 409l-350 410l-119 -102l264 -308z" />
<glyph unicode="&#x205f;" horiz-adv-x="463" />
<glyph unicode="&#x20ac;" horiz-adv-x="747" d="M-6 586l31 82h112l13 82h-134l33 81h113l69 496l101 88h354l76 -88l-27 -178l10 -86h-221l35 86l10 70l-18 20h-137l-23 -20l-53 -388h377l-33 -81h-356l-13 -82h336l-31 -82h-315l-55 -387l18 -21h137l23 21l10 69l-10 86h221l-35 -86l-26 -180l-101 -88h-354l-76 88 l72 498h-133z" />
<glyph unicode="&#x25fc;" horiz-adv-x="1413" d="M0 0v1413h1413v-1413h-1413z" />
</font>
</defs>
</svg>
