<?xml version="1.0" standalone="no"?>
<!DOCTYPE svg PUBLIC "-//W3C//DTD SVG 1.1//EN" "http://www.w3.org/Graphics/SVG/1.1/DTD/svg11.dtd" >
<svg xmlns="http://www.w3.org/2000/svg" xmlns:xlink="http://www.w3.org/1999/xlink" version="1.1">
<metadata></metadata>
<defs>
<font id="moonshinerregular" horiz-adv-x="729" >
<font-face units-per-em="2048" ascent="1638" descent="-410" />
<missing-glyph horiz-adv-x="409" />
<glyph unicode="&#xfb01;" horiz-adv-x="995" d="M61 0l23 68v1282l-23 65h531l22 -176h-354v-442h111l65 22v-221l-65 23h-111v-553l23 -68h-222zM713 0l22 66v1282l-22 67h221l-23 -67v-1282l23 -66h-221z" />
<glyph horiz-adv-x="0" />
<glyph horiz-adv-x="682" />
<glyph unicode=" "  horiz-adv-x="409" />
<glyph unicode="&#x09;" horiz-adv-x="409" />
<glyph unicode="&#xa0;" horiz-adv-x="409" />
<glyph unicode="!" horiz-adv-x="344" d="M61 1415h222l-23 -88v-835l-22 -232h-132l-22 232v835zM84 41v96l41 41h94l41 -41v-96l-41 -41h-94z" />
<glyph unicode="&#x22;" horiz-adv-x="516" d="M41 1278v96l41 41h94l41 -41v-137l-22 -88h-43l-23 88h-47zM299 1278v96l41 41h94l41 -41v-137l-22 -88h-43l-23 88h-47z" />
<glyph unicode="#" horiz-adv-x="1146" d="M20 442l23 179h231l23 174h-231l22 178h231l50 393l-17 49h221l-36 -110l-41 -332h221l49 393l-16 49h221l-35 -110l-41 -332h231l-22 -178h-232l-22 -174h231l-22 -179h-232l-49 -393l17 -49h-222l37 111l41 331h-221l-49 -393l16 -49h-221l35 111l41 331h-232zM453 621 h221l20 174h-221z" />
<glyph unicode="$" horiz-adv-x="677" d="M51 354h221l-22 -86v-69l20 -21h136l20 21v401l-20 21h-244l-90 88v616l90 90h67l21 21v24l-23 86h222l-23 -86v-24l20 -21h70l88 -90v-178l23 -86h-221l20 86v70l-20 20h-136l-20 -20v-400l20 -20h246l88 -88v-619l-88 -90h-70l-20 -20v-25l23 -86h-222l23 86v25l-21 20 h-67l-90 90v178z" />
<glyph unicode="%" horiz-adv-x="788" d="M20 1192v147l78 76h146l75 -76v-147l-75 -78h-146zM82 1217l41 -41h94l41 41v96l-41 41h-94l-41 -41v-96zM217 0l35 113l158 1253l-17 49h221l-34 -112l-158 -1254l16 -49h-221zM510 78v147l78 76h145l76 -76v-147l-76 -78h-145zM571 102l41 -41h95l41 41v97l-41 41h-95 l-41 -41v-97z" />
<glyph unicode="&#x26;" horiz-adv-x="690" d="M51 90v531l88 88l-88 88v528l88 90h355l88 -90v-178l22 -86h-221l23 86v70l-21 20h-137l-21 -20v-400l21 -20h336l86 22v-221l-88 23v-531l-88 -90h-355zM227 199l21 -21h137l21 21v401l-21 21h-137l-21 -21v-401z" />
<glyph unicode="'" horiz-adv-x="258" d="M41 1282v92l41 41h94l41 -41v-137l-22 -88h-43l-23 88h-47z" />
<glyph unicode="(" horiz-adv-x="405" d="M61 -90v1593l89 88h245v-176h-137l-20 -20v-1375l20 -20h137v-178h-245z" />
<glyph unicode=")" horiz-adv-x="409" d="M14 0h138l20 20v1375l-20 20h-138v176h246l88 -88v-1593l-88 -88h-246v178z" />
<glyph unicode="*" horiz-adv-x="622" d="M41 1079l106 70l-106 68l94 149l88 -55v104h176v-102l86 55l97 -149l-107 -70l107 -68l-95 -149l-88 55v-104h-176v104l-86 -57z" />
<glyph unicode="+" horiz-adv-x="655" d="M61 598v221l89 -22h90v90l-23 88h221l-22 -88v-90h90l88 22v-221l-88 23h-90v-91l22 -88h-221l23 88v91h-90z" />
<glyph unicode="," horiz-adv-x="278" d="M51 41v96l41 41h94l41 -41v-137l-22 -88h-43l-23 88h-47z" />
<glyph unicode="-" horiz-adv-x="655" d="M61 596v221l89 -22h356l88 22v-221l-88 22h-356z" />
<glyph unicode="." horiz-adv-x="278" d="M51 41v96l41 41h94l41 -41v-96l-41 -41h-94z" />
<glyph unicode="/" horiz-adv-x="438" d="M20 0l37 113l156 1253l-16 49h221l-35 -112l-158 -1254l17 -49h-222z" />
<glyph unicode="0" horiz-adv-x="653" d="M61 88v1239l89 88h354l88 -88v-1239l-88 -88h-354zM238 197l20 -21h135l21 21v1020l-21 20h-135l-20 -20v-1020z" />
<glyph unicode="1" horiz-adv-x="378" d="M31 1196l65 221h201v-1329l20 -88h-221l23 88v1108h-88z" />
<glyph unicode="2" horiz-adv-x="677" d="M51 1061l23 86v178l88 90h354l88 -90v-618l-88 -89h-246l-20 -20v-399l20 -21h138l20 21v69l-22 86h221l-23 -86v-268h-530v707l88 88h246l20 20v402l-20 20h-138l-20 -20v-70l22 -86h-221z" />
<glyph unicode="3" horiz-adv-x="634" d="M31 354h221l-23 -86v-69l21 -21h135l21 21v399l-21 20h-68l-88 -22v221l88 -22h68l21 20v402l-21 20h-135l-21 -20v-70l23 -86h-221l22 86v178l88 90h355l88 -90v-530l-88 -88l88 -89v-528l-88 -90h-355l-88 90v178z" />
<glyph unicode="4" horiz-adv-x="677" d="M41 1415h221l-20 -88v-512l20 -20h135l21 20v512l-23 88h221l-22 -88v-1239l22 -88h-221l23 88v510l-21 20h-245l-89 89v620z" />
<glyph unicode="5" horiz-adv-x="677" d="M51 354h221l-22 -86v-69l20 -21h138l20 21v399l-20 20h-246l-88 89v708h530v-268l23 -86h-221l22 86v70l-20 20h-138l-20 -20v-402l20 -20h246l88 -88v-617l-88 -90h-354l-88 90v178z" />
<glyph unicode="6" horiz-adv-x="655" d="M51 90v1235l88 90h355l88 -90v-178l22 -86h-221l23 86v70l-21 20h-137l-21 -20v-402l21 -20h246l88 -88v-617l-88 -90h-355zM227 199l21 -21h137l21 21v399l-21 20h-137l-21 -20v-399z" />
<glyph unicode="7" horiz-adv-x="604" d="M31 0l51 104l317 1133h-264l-92 -20l33 198h485l23 -178l-326 -1155l18 -82h-245z" />
<glyph unicode="8" horiz-adv-x="634" d="M51 90v528l88 89l-88 88v530l90 90h355l88 -90v-530l-88 -88l88 -89v-528l-88 -90h-355zM229 199l21 -21h135l21 21v399l-21 20h-135l-21 -20v-399zM229 815l21 -20h135l21 20v402l-21 20h-135l-21 -20v-402z" />
<glyph unicode="9" horiz-adv-x="655" d="M51 354h221l-22 -86v-69l20 -21h136l20 21v399l-20 20h-244l-88 89v618l88 90h354l88 -90v-1235l-88 -90h-354l-88 90v178zM250 815l20 -20h136l20 20v402l-20 20h-136l-20 -20v-402z" />
<glyph unicode=":" horiz-adv-x="299" d="M61 483v97l41 41h95l41 -41v-97l-41 -41h-95zM61 838v96l41 41h95l41 -41v-96l-41 -41h-95z" />
<glyph unicode=";" horiz-adv-x="278" d="M51 41v96l41 41h94l41 -41v-137l-22 -88h-43l-23 88h-47zM51 395v97l41 40h94l41 -40v-97l-41 -41h-94z" />
<glyph unicode="&#x3c;" horiz-adv-x="634" d="M41 655l410 -409l102 102l-307 307l307 308l-102 102z" />
<glyph unicode="=" horiz-adv-x="655" d="M61 420v221l89 -23h356l88 23v-221l-88 22h-356zM61 774v221l89 -22h356l88 22v-221l-88 23h-356z" />
<glyph unicode="&#x3e;" horiz-adv-x="634" d="M82 348l102 -102l410 409l-410 410l-102 -102l307 -308z" />
<glyph unicode="?" horiz-adv-x="634" d="M41 1061l22 86v178l89 90h354l88 -90v-616l-88 -88h-113l-20 -21v-252l-23 -88h-133l-20 88v361l88 88h112l21 20v400l-21 20h-135l-20 -20v-70l20 -86h-221zM197 41v96l41 41h94l41 -41v-96l-41 -41h-94z" />
<glyph unicode="@" horiz-adv-x="1130" d="M123 -90v1417l88 88h709l88 -88v-1063l-88 -88h-490l-41 41v803l41 41h270l41 -41v-690l21 -21h49l20 21v887l-20 20h-492l-20 -20v-1197l20 -20h689l-23 -178h-774zM520 330l21 -21h49l20 21v577l-20 21h-49l-21 -21v-577z" />
<glyph unicode="A" d="M10 0l41 121l209 1214l-18 80h241l-18 -80l211 -1212l43 -123h-221l14 59l-47 271l-25 24h-153l-25 -22l-45 -273l14 -59h-221zM297 547l18 -15h95l18 11l-49 291l-17 157l-16 -157z" />
<glyph unicode="B" horiz-adv-x="669" d="M61 0l23 88v1241l-23 86h465l88 -88v-530l-90 -88l90 -88v-533l-88 -88h-465zM262 199l21 -21h135l20 21v401l-20 21h-135l-21 -21v-401zM262 817l21 -20h135l20 20v402l-20 20h-135l-21 -20v-402z" />
<glyph unicode="C" horiz-adv-x="661" d="M61 88v1239l89 88h354l88 -88v-178l22 -86h-221l23 86v70l-21 20h-137l-20 -20v-1020l20 -21h137l21 21v69l-23 86h221l-22 -86v-180l-88 -88h-354z" />
<glyph unicode="D" horiz-adv-x="675" d="M61 0l21 88v1241l-21 86h465l88 -88v-1239l-88 -88h-465zM260 199l21 -21h135l20 21v1020l-20 20h-135l-21 -20v-1020z" />
<glyph unicode="E" horiz-adv-x="645" d="M61 0l23 88v1241l-23 86h531l33 -196l-93 20h-251l-21 -20v-402l21 -20h69l88 22v-221l-88 23h-69l-21 -21v-401l21 -21h251l93 21l-33 -199h-531z" />
<glyph unicode="F" horiz-adv-x="645" d="M61 0l23 88v1241l-23 86h531l33 -196l-93 20h-251l-21 -20v-402l21 -20h69l86 22v-221l-86 23h-69l-21 -21v-512l23 -88h-222z" />
<glyph unicode="G" horiz-adv-x="675" d="M61 88v1239l89 88h354l88 -88v-178l22 -86h-221l23 86v70l-21 20h-135l-20 -20v-1020l20 -21h135l21 21v331h-49l-39 179h286l-22 -88v-533l-88 -88h-354z" />
<glyph unicode="H" horiz-adv-x="698" d="M61 0l23 86v1241l-23 88h222l-23 -88v-512l21 -20h135l20 20v512l-20 88h221l-23 -88v-1241l23 -86h-221l20 86v512l-20 20h-135l-21 -20v-512l23 -86h-222z" />
<glyph unicode="I" horiz-adv-x="344" d="M61 0l23 86v1241l-23 88h222l-23 -88v-1241l23 -86h-222z" />
<glyph unicode="J" horiz-adv-x="657" d="M20 442h222l-23 -88v-157l21 -21h137l20 21v1130l-22 88h221l-23 -88v-1239l-88 -88h-354l-88 88v266z" />
<glyph unicode="K" horiz-adv-x="735" d="M61 0l23 88v1239l-23 88h222l-23 -88v-418l-14 -147l45 147l184 455l-12 51h262l-82 -104l-221 -535l225 -674l78 -102h-258l14 66l-155 471l-66 -160v-289l23 -88h-222z" />
<glyph unicode="L" horiz-adv-x="645" d="M61 0l23 86v1241l-23 88h222l-21 -88v-1130l21 -21h249l93 21l-33 -197h-531z" />
<glyph unicode="M" horiz-adv-x="976" d="M61 0l23 86v1241l-23 88h199l229 -678l228 678h198l-22 -88v-1241l22 -86h-221l23 86v813l-182 -541h-91l-184 541v-813l23 -86h-222z" />
<glyph unicode="N" horiz-adv-x="739" d="M61 0l23 86v1241l-23 88h199l197 -745l30 -125l-8 125v657l-22 88h221l-23 -88v-1241l23 -86h-199l-196 745l-31 125l8 -125v-659l23 -86h-222z" />
<glyph unicode="O" horiz-adv-x="653" d="M61 88v1239l89 88h354l88 -88v-1239l-88 -88h-354zM238 197l20 -21h135l21 21v1020l-21 20h-135l-20 -20v-1020z" />
<glyph unicode="P" horiz-adv-x="655" d="M61 0l23 86v1241l-23 88h465l88 -88v-620l-88 -89h-245l-21 -20v-512l23 -86h-222zM260 815l21 -20h135l20 20v402l-20 20h-135l-21 -20v-402z" />
<glyph unicode="Q" horiz-adv-x="655" d="M61 88v1239l91 88h352l90 -88v-1239l-90 -88h-68l-20 -20v-158h-176v158l-21 20h-67zM240 197l20 -21h135l21 21v1020l-21 20h-135l-20 -20v-1020z" />
<glyph unicode="R" horiz-adv-x="681" d="M61 0l23 86v1241l-23 88h465l88 -88v-620l-88 -89l76 -528l29 -90h-221l16 84l-76 518l-14 16h-55l-21 -20v-512l23 -86h-222zM260 815l21 -20h137l20 20v402l-20 20h-137l-21 -20v-402z" />
<glyph unicode="S" horiz-adv-x="677" d="M51 352h221l-22 -86v-69l20 -21h136l20 21v401l-20 20h-244l-90 89v620l90 88h354l88 -88v-180l23 -86h-221l20 86v70l-20 20h-136l-20 -20v-402l20 -20h246l88 -88v-619l-88 -88h-354l-90 88v178z" />
<glyph unicode="T" horiz-adv-x="665" d="M16 1217l33 198h567l33 -198l-92 20h-115l-20 -20v-1131l22 -86h-221l23 86v1131l-21 20h-116z" />
<glyph unicode="U" horiz-adv-x="698" d="M61 1415h222l-23 -88v-1130l21 -21h137l20 21v1130l-22 88h221l-23 -88v-1239l-88 -88h-354l-88 88v1239z" />
<glyph unicode="V" horiz-adv-x="688" d="M10 1415h221l-14 -59l119 -797l10 -113l10 113l115 797l-14 59h221l-41 -121l-186 -1198l16 -96h-242l17 96l-191 1196z" />
<glyph unicode="W" horiz-adv-x="1128" d="M10 1415h232l-23 -74l125 -823l4 -72l4 72l117 811l-18 86h229l-18 -86l120 -811l4 -72l5 72l118 823l-22 74h231l-37 -110l-194 -1237l20 -68h-241l20 68l-117 725l-4 71l-4 -71l-112 -725l20 -68h-242l21 68l-199 1232z" />
<glyph unicode="X" horiz-adv-x="688" d="M10 0l43 68l170 641l-168 639l-45 67h258l-20 -63l88 -363l8 -94l8 94l88 363l-22 63h260l-45 -69l-170 -637l170 -639l45 -70h-260l22 61l-88 367l-8 94l-8 -94l-90 -367l22 -61h-258z" />
<glyph unicode="Y" d="M10 1415h258l-20 -61l108 -416l9 -64l8 64l108 416l-22 61h260l-45 -78l-221 -733v-516l22 -88h-221l22 88v524l-221 734z" />
<glyph unicode="Z" horiz-adv-x="636" d="M41 1217l33 198h510v-176l-332 -1061h250l92 21l-33 -199h-508v178l332 1059h-252z" />
<glyph unicode="[" horiz-adv-x="428" d="M61 -178l23 88v1593l-23 88h357v-176h-137l-21 -20v-1375l21 -20h137v-178h-357z" />
<glyph unicode="\" horiz-adv-x="438" d="M20 1415l37 -112l156 -1254l-16 -49h221l-35 113l-158 1253l17 49h-222z" />
<glyph unicode="]" horiz-adv-x="428" d="M10 0h137l21 20v1375l-21 20h-137v176h357l-23 -88v-1593l23 -88h-357v178z" />
<glyph unicode="^" horiz-adv-x="860" d="M20 1006l103 -103l307 307l307 -307l103 103l-410 409z" />
<glyph unicode="_" horiz-adv-x="819" d="M61 23l89 -23h520l88 23v-222l-88 23h-520l-89 -23v222z" />
<glyph unicode="`" horiz-adv-x="739" d="M205 1749l92 104l84 -49l123 -250l-53 -24z" />
<glyph unicode="a" d="M10 0l41 121l209 1214l-18 80h241l-18 -80l211 -1212l43 -123h-221l14 59l-47 271l-25 24h-153l-25 -22l-45 -273l14 -59h-221zM297 547l18 -15h95l18 11l-49 291l-17 157l-16 -157z" />
<glyph unicode="b" horiz-adv-x="669" d="M61 0l23 88v1241l-23 86h465l88 -88v-530l-90 -88l90 -88v-533l-88 -88h-465zM262 199l21 -21h135l20 21v401l-20 21h-135l-21 -21v-401zM262 817l21 -20h135l20 20v402l-20 20h-135l-21 -20v-402z" />
<glyph unicode="c" horiz-adv-x="661" d="M61 88v1239l89 88h354l88 -88v-178l22 -86h-221l23 86v70l-21 20h-137l-20 -20v-1020l20 -21h137l21 21v69l-23 86h221l-22 -86v-180l-88 -88h-354z" />
<glyph unicode="d" horiz-adv-x="675" d="M61 0l21 88v1241l-21 86h465l88 -88v-1239l-88 -88h-465zM260 199l21 -21h135l20 21v1020l-20 20h-135l-21 -20v-1020z" />
<glyph unicode="e" horiz-adv-x="645" d="M61 0l23 88v1241l-23 86h531l33 -196l-93 20h-251l-21 -20v-402l21 -20h69l88 22v-221l-88 23h-69l-21 -21v-401l21 -21h251l93 21l-33 -199h-531z" />
<glyph unicode="f" horiz-adv-x="645" d="M61 0l23 88v1241l-23 86h531l33 -196l-93 20h-251l-21 -20v-402l21 -20h69l86 22v-221l-86 23h-69l-21 -21v-512l23 -88h-222z" />
<glyph unicode="g" horiz-adv-x="675" d="M61 88v1239l89 88h354l88 -88v-178l22 -86h-221l23 86v70l-21 20h-135l-20 -20v-1020l20 -21h135l21 21v331h-49l-39 179h286l-22 -88v-533l-88 -88h-354z" />
<glyph unicode="h" horiz-adv-x="698" d="M61 0l23 86v1241l-23 88h222l-23 -88v-512l21 -20h135l20 20v512l-20 88h221l-23 -88v-1241l23 -86h-221l20 86v512l-20 20h-135l-21 -20v-512l23 -86h-222z" />
<glyph unicode="i" horiz-adv-x="344" d="M61 0l23 86v1241l-23 88h222l-23 -88v-1241l23 -86h-222z" />
<glyph unicode="j" horiz-adv-x="657" d="M20 442h222l-23 -88v-157l21 -21h137l20 21v1130l-22 88h221l-23 -88v-1239l-88 -88h-354l-88 88v266z" />
<glyph unicode="k" horiz-adv-x="735" d="M61 0l23 88v1239l-23 88h222l-23 -88v-418l-14 -147l45 147l184 455l-12 51h262l-82 -104l-221 -535l225 -674l78 -102h-258l14 66l-155 471l-66 -160v-289l23 -88h-222z" />
<glyph unicode="l" horiz-adv-x="645" d="M61 0l23 86v1241l-23 88h222l-21 -88v-1130l21 -21h249l93 21l-33 -197h-531z" />
<glyph unicode="m" horiz-adv-x="976" d="M61 0l23 86v1241l-23 88h199l229 -678l228 678h198l-22 -88v-1241l22 -86h-221l23 86v813l-182 -541h-91l-184 541v-813l23 -86h-222z" />
<glyph unicode="n" horiz-adv-x="739" d="M61 0l23 86v1241l-23 88h199l197 -745l30 -125l-8 125v657l-22 88h221l-23 -88v-1241l23 -86h-199l-196 745l-31 125l8 -125v-659l23 -86h-222z" />
<glyph unicode="o" horiz-adv-x="653" d="M61 88v1239l89 88h354l88 -88v-1239l-88 -88h-354zM238 197l20 -21h135l21 21v1020l-21 20h-135l-20 -20v-1020z" />
<glyph unicode="p" horiz-adv-x="655" d="M61 0l23 86v1241l-23 88h465l88 -88v-620l-88 -89h-245l-21 -20v-512l23 -86h-222zM260 815l21 -20h135l20 20v402l-20 20h-135l-21 -20v-402z" />
<glyph unicode="q" horiz-adv-x="655" d="M61 88v1239l91 88h352l90 -88v-1239l-90 -88h-68l-20 -20v-158h-176v158l-21 20h-67zM240 197l20 -21h135l21 21v1020l-21 20h-135l-20 -20v-1020z" />
<glyph unicode="r" horiz-adv-x="681" d="M61 0l23 86v1241l-23 88h465l88 -88v-620l-88 -89l76 -528l29 -90h-221l16 84l-76 518l-14 16h-55l-21 -20v-512l23 -86h-222zM260 815l21 -20h137l20 20v402l-20 20h-137l-21 -20v-402z" />
<glyph unicode="s" horiz-adv-x="677" d="M51 352h221l-22 -86v-69l20 -21h136l20 21v401l-20 20h-244l-90 89v620l90 88h354l88 -88v-180l23 -86h-221l20 86v70l-20 20h-136l-20 -20v-402l20 -20h246l88 -88v-619l-88 -88h-354l-90 88v178z" />
<glyph unicode="t" horiz-adv-x="665" d="M16 1217l33 198h567l33 -198l-92 20h-115l-20 -20v-1131l22 -86h-221l23 86v1131l-21 20h-116z" />
<glyph unicode="u" horiz-adv-x="698" d="M61 1415h222l-23 -88v-1130l21 -21h137l20 21v1130l-22 88h221l-23 -88v-1239l-88 -88h-354l-88 88v1239z" />
<glyph unicode="v" horiz-adv-x="688" d="M10 1415h221l-14 -59l119 -797l10 -113l10 113l115 797l-14 59h221l-41 -121l-186 -1198l16 -96h-242l17 96l-191 1196z" />
<glyph unicode="w" horiz-adv-x="1128" d="M10 1415h232l-23 -74l125 -823l4 -72l4 72l117 811l-18 86h229l-18 -86l120 -811l4 -72l5 72l118 823l-22 74h231l-37 -110l-194 -1237l20 -68h-241l20 68l-117 725l-4 71l-4 -71l-112 -725l20 -68h-242l21 68l-199 1232z" />
<glyph unicode="x" horiz-adv-x="688" d="M10 0l43 68l170 641l-168 639l-45 67h258l-20 -63l88 -363l8 -94l8 94l88 363l-22 63h260l-45 -69l-170 -637l170 -639l45 -70h-260l22 61l-88 367l-8 94l-8 -94l-90 -367l22 -61h-258z" />
<glyph unicode="y" d="M10 1415h258l-20 -61l108 -416l9 -64l8 64l108 416l-22 61h260l-45 -78l-221 -733v-516l22 -88h-221l22 88v524l-221 734z" />
<glyph unicode="z" horiz-adv-x="634" d="M41 1217l33 198h510v-176l-332 -1061h250l92 21l-33 -199h-508v178l332 1059h-252z" />
<glyph unicode="{" horiz-adv-x="446" d="M20 707l82 81v715l88 88h246v-176h-137l-20 -20v-1375l20 -20h137v-178h-246l-88 88v715z" />
<glyph unicode="|" horiz-adv-x="344" d="M61 -178l23 86v1597l-23 88h222l-23 -88v-1597l23 -86h-222z" />
<glyph unicode="}" horiz-adv-x="446" d="M10 0h137l21 20v1375l-21 20h-137v176h246l88 -88v-715l82 -81l-82 -82v-715l-88 -88h-246v178z" />
<glyph unicode="~" horiz-adv-x="501" d="M41 625l68 10l57 27l117 -60h94l57 57l27 82l-45 45l-27 -55l-53 -26l-117 59h-96l-57 -57z" />
<glyph unicode="&#xa1;" horiz-adv-x="344" d="M61 0l23 88v815l22 252h132l22 -252v-815l23 -88h-222zM84 1278v96l41 41h94l41 -41v-96l-41 -41h-94z" />
<glyph unicode="&#xa2;" horiz-adv-x="661" d="M61 293v829l89 88h208l31 205h90l-30 -205h55l88 -88v-198l22 -66h-198v139l-94 -614h73l21 20v156h198l-22 -65v-201l-88 -88h-209l-31 -205h-90l31 205h-55zM238 418l94 616h-74l-20 -20v-596z" />
<glyph unicode="&#xa3;" horiz-adv-x="716" d="M41 598v221l86 -22h70l20 20v510l88 88h338l33 -196l-92 20h-170l-21 -20v-402l21 -20h69l86 22v-221l-86 23h-69l-21 -21l-131 -410l12 -12h310l92 21l-33 -199h-561v178l135 422l-20 21h-70z" />
<glyph unicode="&#xa5;" d="M10 1415h258l-20 -61l108 -416l9 -64l8 64l108 416l-22 61h260l-45 -78l-182 -604h206v-82h-231l-14 -47v-35h245v-82h-245v-419l22 -68h-221l22 68v419h-245v82h245v43l-12 39h-233v82h209l-185 613z" />
<glyph unicode="&#xa8;" horiz-adv-x="819" d="M205 1571v96l41 41h94l41 -41v-96l-41 -41h-94zM438 1571v96l41 41h94l41 -41v-96l-41 -41h-94z" />
<glyph unicode="&#xab;" horiz-adv-x="1024" d="M41 655l410 -409l102 102l-307 307l307 308l-102 102zM430 655l410 -409l102 102l-307 307l307 308l-102 102z" />
<glyph unicode="&#xad;" horiz-adv-x="655" d="M61 596v221l89 -22h356l88 22v-221l-88 22h-356z" />
<glyph unicode="&#xaf;" horiz-adv-x="942" d="M205 1571v94l41 41h450l41 -41v-94l-41 -41h-450z" />
<glyph unicode="&#xb0;" horiz-adv-x="360" d="M31 1192v147l78 76h145l76 -76v-147l-76 -78h-145zM92 1217l41 -41h94l41 41v96l-41 41h-94l-41 -41v-96z" />
<glyph unicode="&#xb4;" horiz-adv-x="739" d="M236 1554l122 250l84 49l93 -104l-246 -219z" />
<glyph unicode="&#xb7;" horiz-adv-x="299" d="M61 659v95l41 41h95l41 -41v-95l-41 -41h-95z" />
<glyph unicode="&#xb8;" horiz-adv-x="655" d="M236 -205l75 74v74l-57 57h108l58 -57v-74l-43 -55l-66 -41z" />
<glyph unicode="&#xbb;" horiz-adv-x="1024" d="M82 348l102 -102l410 409l-410 410l-102 -102l307 -308zM471 348l102 -102l410 409l-410 410l-102 -102l307 -308z" />
<glyph unicode="&#xbf;" horiz-adv-x="634" d="M41 90v617l88 88h113l20 20v252l23 88h133l20 -88v-360l-88 -89h-112l-21 -20v-399l21 -21h135l20 21v69l-20 86h221l-23 -86v-178l-88 -90h-354zM262 1278v96l41 41h94l41 -41v-96l-41 -41h-94z" />
<glyph unicode="&#xc0;" d="M10 0l41 121l209 1214l-18 80h241l-18 -80l211 -1212l43 -123h-221l14 59l-47 271l-25 24h-153l-25 -22l-45 -273l14 -59h-221zM213 1749l92 104l84 -49l123 -250l-53 -24zM297 547l18 -15h95l18 11l-49 291l-17 157l-16 -157z" />
<glyph unicode="&#xc1;" d="M10 0l41 121l209 1214l-18 80h241l-18 -80l211 -1212l43 -123h-221l14 59l-47 271l-25 24h-153l-25 -22l-45 -273l14 -59h-221zM236 1554l122 250l84 49l93 -104l-246 -219zM297 547l18 -15h95l18 11l-49 291l-17 157l-16 -157z" />
<glyph unicode="&#xc2;" d="M10 0l41 121l209 1214l-18 80h241l-18 -80l211 -1212l43 -123h-221l14 59l-47 271l-25 24h-153l-25 -22l-45 -273l14 -59h-221zM162 1534h110l78 174h25l78 -174h110l-94 199l-96 96h-21l-96 -96zM297 547l18 -15h95l18 11l-49 291l-17 157l-16 -157z" />
<glyph unicode="&#xc3;" d="M10 0l41 121l209 1214l-18 80h241l-18 -80l211 -1212l43 -123h-221l14 59l-47 271l-25 24h-153l-25 -22l-45 -273l14 -59h-221zM152 1577l67 10l57 27l117 -60h94l58 58l26 82l-45 45l-26 -56l-54 -26l-116 59h-97l-57 -57zM297 547l18 -15h95l18 11l-49 291l-17 157 l-16 -157z" />
<glyph unicode="&#xc4;" d="M10 0l41 121l209 1214l-18 80h241l-18 -80l211 -1212l43 -123h-221l14 59l-47 271l-25 24h-153l-25 -22l-45 -273l14 -59h-221zM158 1571v96l41 41h94l41 -41v-96l-41 -41h-94zM297 547l18 -15h95l18 11l-49 291l-17 157l-16 -157zM391 1571v96l41 41h94l41 -41v-96 l-41 -41h-94z" />
<glyph unicode="&#xc5;" d="M10 0l41 121l209 1214l-18 80h241l-18 -80l211 -1212l43 -123h-221l14 59l-47 271l-25 24h-153l-25 -22l-45 -273l14 -59h-221zM213 1616v147l78 76h145l76 -76v-147l-76 -78h-145zM274 1640l41 -41h95l41 41v97l-41 41h-95l-41 -41v-97zM297 547l18 -15h95l18 11 l-49 291l-17 157l-16 -157z" />
<glyph unicode="&#xc6;" horiz-adv-x="1056" d="M10 0l60 121l379 1214l-7 80h562l32 -196l-92 20h-252l-20 -20v-402l20 -20h70l88 22v-221l-88 23h-70l-14 -15l14 -428h252l92 21l-32 -199h-531l23 88v262l-4 4h-154l-29 -22l-82 -273l4 -59h-221zM375 547l16 -15h94l11 7v430l-31 -135z" />
<glyph unicode="&#xc7;" horiz-adv-x="661" d="M61 88v1239l89 88h354l88 -88v-178l22 -86h-221l23 86v70l-21 20h-137l-20 -20v-1020l20 -21h137l21 21v69l-23 86h221l-22 -86v-180l-88 -88h-139l55 -55v-76l-43 -55l-66 -41l-75 22l75 74v76l-55 55h-106z" />
<glyph unicode="&#xc8;" horiz-adv-x="645" d="M61 0l23 88v1241l-23 86h531l33 -196l-93 20h-251l-21 -20v-402l21 -20h69l88 22v-221l-88 23h-69l-21 -21v-401l21 -21h251l93 21l-33 -199h-531zM172 1749l92 104l84 -49l123 -250l-53 -24z" />
<glyph unicode="&#xc9;" horiz-adv-x="645" d="M61 0l23 88v1241l-23 86h531l33 -196l-93 20h-251l-21 -20v-402l21 -20h69l88 22v-221l-88 23h-69l-21 -21v-401l21 -21h251l93 21l-33 -199h-531zM195 1554l122 250l84 49l93 -104l-246 -219z" />
<glyph unicode="&#xca;" horiz-adv-x="645" d="M61 0l23 88v1241l-23 86h531l33 -196l-93 20h-251l-21 -20v-402l21 -20h69l88 22v-221l-88 23h-69l-21 -21v-401l21 -21h251l93 21l-33 -199h-531zM121 1534h110l78 174h25l78 -174h110l-94 199l-96 96h-21l-96 -96z" />
<glyph unicode="&#xcb;" horiz-adv-x="645" d="M61 0l23 88v1241l-23 86h531l33 -196l-93 20h-251l-21 -20v-402l21 -20h69l88 22v-221l-88 23h-69l-21 -21v-401l21 -21h251l93 21l-33 -199h-531zM117 1571v96l41 41h94l41 -41v-96l-41 -41h-94zM350 1571v96l41 41h94l41 -41v-96l-41 -41h-94z" />
<glyph unicode="&#xcc;" horiz-adv-x="344" d="M-27 1749l93 104l84 -49l122 -250l-53 -24zM61 0l23 86v1241l-23 88h222l-23 -88v-1241l23 -86h-222z" />
<glyph unicode="&#xcd;" horiz-adv-x="344" d="M61 0l23 86v1241l-23 88h222l-23 -88v-1241l23 -86h-222zM72 1554l123 250l84 49l92 -104l-246 -219z" />
<glyph unicode="&#xce;" horiz-adv-x="344" d="M-29 1534h111l78 174h24l78 -174h111l-94 199l-97 96h-20l-96 -96zM61 0l23 86v1241l-23 88h222l-23 -88v-1241l23 -86h-222z" />
<glyph unicode="&#xcf;" horiz-adv-x="344" d="M-33 1571v96l41 41h94l41 -41v-96l-41 -41h-94zM61 0l23 86v1241l-23 88h222l-23 -88v-1241l23 -86h-222zM201 1571v96l41 41h94l41 -41v-96l-41 -41h-94z" />
<glyph unicode="&#xd0;" horiz-adv-x="692" d="M10 621v176h68l20 20v512l-20 86h465l88 -88v-1239l-88 -88h-465l20 88v512l-20 21h-68zM276 199l21 -21h135l21 21v1020l-21 20h-135l-21 -20v-402l21 -20h68v-176h-68l-21 -21v-401z" />
<glyph unicode="&#xd1;" horiz-adv-x="739" d="M61 0l23 86v1241l-23 88h199l197 -745l30 -125l-8 125v657l-22 88h221l-23 -88v-1241l23 -86h-199l-196 745l-31 125l8 -125v-659l23 -86h-222zM156 1577l67 10l58 27l116 -60h95l57 58l26 82l-45 45l-26 -56l-53 -26l-117 59h-96l-58 -57z" />
<glyph unicode="&#xd2;" horiz-adv-x="653" d="M61 88v1239l89 88h354l88 -88v-1239l-88 -88h-354zM176 1749l92 104l84 -49l123 -250l-53 -24zM238 197l20 -21h135l21 21v1020l-21 20h-135l-20 -20v-1020z" />
<glyph unicode="&#xd3;" horiz-adv-x="653" d="M61 88v1239l89 88h354l88 -88v-1239l-88 -88h-354zM199 1554l123 250l84 49l92 -104l-246 -219zM238 197l20 -21h135l21 21v1020l-21 20h-135l-20 -20v-1020z" />
<glyph unicode="&#xd4;" horiz-adv-x="653" d="M61 88v1239l89 88h354l88 -88v-1239l-88 -88h-354zM125 1534h111l77 174h25l78 -174h110l-94 199l-96 96h-21l-96 -96zM238 197l20 -21h135l21 21v1020l-21 20h-135l-20 -20v-1020z" />
<glyph unicode="&#xd5;" horiz-adv-x="653" d="M61 88v1239l89 88h354l88 -88v-1239l-88 -88h-354zM125 1577l68 10l57 27l117 -60h94l57 58l27 82l-45 45l-27 -56l-53 -26l-117 59h-96l-57 -57zM238 197l20 -21h135l21 21v1020l-21 20h-135l-20 -20v-1020z" />
<glyph unicode="&#xd6;" horiz-adv-x="653" d="M61 88v1239l89 88h354l88 -88v-1239l-88 -88h-354zM121 1571v96l41 41h94l41 -41v-96l-41 -41h-94zM238 197l20 -21h135l21 21v1020l-21 20h-135l-20 -20v-1020zM354 1571v96l41 41h94l41 -41v-96l-41 -41h-94z" />
<glyph unicode="&#xd8;" horiz-adv-x="653" d="M61 88v1239l89 88h278l14 62h123l-22 -101l49 -49v-1239l-88 -88h-279l-14 -61h-123l23 100zM238 588l149 649h-129l-20 -20v-629zM266 176h127l21 21v622z" />
<glyph unicode="&#xd9;" horiz-adv-x="698" d="M61 1415h222l-23 -88v-1130l21 -21h137l20 21v1130l-22 88h221l-23 -88v-1239l-88 -88h-354l-88 88v1239zM176 1749l92 104l84 -49l123 -250l-53 -24z" />
<glyph unicode="&#xda;" horiz-adv-x="698" d="M61 1415h222l-23 -88v-1130l21 -21h137l20 21v1130l-22 88h221l-23 -88v-1239l-88 -88h-354l-88 88v1239zM240 1554l122 250l84 49l93 -104l-246 -219z" />
<glyph unicode="&#xdb;" horiz-adv-x="698" d="M61 1415h222l-23 -88v-1130l21 -21h137l20 21v1130l-22 88h221l-23 -88v-1239l-88 -88h-354l-88 88v1239zM150 1534h110l78 174h24l78 -174h111l-94 199l-97 96h-20l-96 -96z" />
<glyph unicode="&#xdc;" horiz-adv-x="698" d="M61 1415h222l-23 -88v-1130l21 -21h137l20 21v1130l-22 88h221l-23 -88v-1239l-88 -88h-354l-88 88v1239zM143 1571v96l41 41h95l40 -41v-96l-40 -41h-95zM379 1571v96l41 41h94l41 -41v-96l-41 -41h-94z" />
<glyph unicode="&#xdd;" d="M10 1415h258l-20 -61l108 -416l9 -64l8 64l108 416l-22 61h260l-45 -78l-221 -733v-516l22 -88h-221l22 88v524l-221 734zM258 1554l123 250l84 49l92 -104l-246 -219z" />
<glyph unicode="&#xde;" horiz-adv-x="655" d="M61 0l23 86v1241l-23 88h222l-23 -88v-201l21 -20h245l88 -88v-621l-88 -88h-245l-21 -20v-203l23 -86h-222zM260 506l21 -21h135l20 21v401l-20 21h-135l-21 -21v-401z" />
<glyph unicode="&#xe0;" d="M10 0l41 121l209 1214l-18 80h241l-18 -80l211 -1212l43 -123h-221l14 59l-47 271l-25 24h-153l-25 -22l-45 -273l14 -59h-221zM213 1749l92 104l84 -49l123 -250l-53 -24zM297 547l18 -15h95l18 11l-49 291l-17 157l-16 -157z" />
<glyph unicode="&#xe1;" d="M10 0l41 121l209 1214l-18 80h241l-18 -80l211 -1212l43 -123h-221l14 59l-47 271l-25 24h-153l-25 -22l-45 -273l14 -59h-221zM236 1554l122 250l84 49l93 -104l-246 -219zM297 547l18 -15h95l18 11l-49 291l-17 157l-16 -157z" />
<glyph unicode="&#xe2;" d="M10 0l41 121l209 1214l-18 80h241l-18 -80l211 -1212l43 -123h-221l14 59l-47 271l-25 24h-153l-25 -22l-45 -273l14 -59h-221zM162 1534h110l78 174h25l78 -174h110l-94 199l-96 96h-21l-96 -96zM297 547l18 -15h95l18 11l-49 291l-17 157l-16 -157z" />
<glyph unicode="&#xe3;" d="M10 0l41 121l209 1214l-18 80h241l-18 -80l211 -1212l43 -123h-221l14 59l-47 271l-25 24h-153l-25 -22l-45 -273l14 -59h-221zM152 1577l67 10l57 27l117 -60h94l58 58l26 82l-45 45l-26 -56l-54 -26l-116 59h-97l-57 -57zM297 547l18 -15h95l18 11l-49 291l-17 157 l-16 -157z" />
<glyph unicode="&#xe4;" d="M10 0l41 121l209 1214l-18 80h241l-18 -80l211 -1212l43 -123h-221l14 59l-47 271l-25 24h-153l-25 -22l-45 -273l14 -59h-221zM158 1571v96l41 41h94l41 -41v-96l-41 -41h-94zM297 547l18 -15h95l18 11l-49 291l-17 157l-16 -157zM391 1571v96l41 41h94l41 -41v-96 l-41 -41h-94z" />
<glyph unicode="&#xe5;" d="M10 0l41 121l209 1214l-18 80h241l-18 -80l211 -1212l43 -123h-221l14 59l-47 271l-25 24h-153l-25 -22l-45 -273l14 -59h-221zM213 1616v147l78 76h145l76 -76v-147l-76 -78h-145zM274 1640l41 -41h95l41 41v97l-41 41h-95l-41 -41v-97zM297 547l18 -15h95l18 11 l-49 291l-17 157l-16 -157z" />
<glyph unicode="&#xe6;" horiz-adv-x="1056" d="M10 0l60 121l379 1214l-7 80h562l32 -196l-92 20h-252l-20 -20v-402l20 -20h70l88 22v-221l-88 23h-70l-14 -15l14 -428h252l92 21l-32 -199h-531l23 88v262l-4 4h-154l-29 -22l-82 -273l4 -59h-221zM375 547l16 -15h94l11 7v430l-31 -135z" />
<glyph unicode="&#xe7;" horiz-adv-x="661" d="M61 88v1239l89 88h354l88 -88v-178l22 -86h-221l23 86v70l-21 20h-137l-20 -20v-1020l20 -21h137l21 21v69l-23 86h221l-22 -86v-180l-88 -88h-139l55 -55v-76l-43 -55l-66 -41l-75 22l75 74v76l-55 55h-106z" />
<glyph unicode="&#xe8;" horiz-adv-x="645" d="M61 0l23 88v1241l-23 86h531l33 -196l-93 20h-251l-21 -20v-402l21 -20h69l88 22v-221l-88 23h-69l-21 -21v-401l21 -21h251l93 21l-33 -199h-531zM172 1749l92 104l84 -49l123 -250l-53 -24z" />
<glyph unicode="&#xe9;" horiz-adv-x="645" d="M61 0l23 88v1241l-23 86h531l33 -196l-93 20h-251l-21 -20v-402l21 -20h69l88 22v-221l-88 23h-69l-21 -21v-401l21 -21h251l93 21l-33 -199h-531zM195 1554l122 250l84 49l93 -104l-246 -219z" />
<glyph unicode="&#xea;" horiz-adv-x="645" d="M61 0l23 88v1241l-23 86h531l33 -196l-93 20h-251l-21 -20v-402l21 -20h69l88 22v-221l-88 23h-69l-21 -21v-401l21 -21h251l93 21l-33 -199h-531zM121 1534h110l78 174h25l78 -174h110l-94 199l-96 96h-21l-96 -96z" />
<glyph unicode="&#xeb;" horiz-adv-x="645" d="M61 0l23 88v1241l-23 86h531l33 -196l-93 20h-251l-21 -20v-402l21 -20h69l88 22v-221l-88 23h-69l-21 -21v-401l21 -21h251l93 21l-33 -199h-531zM117 1571v96l41 41h94l41 -41v-96l-41 -41h-94zM350 1571v96l41 41h94l41 -41v-96l-41 -41h-94z" />
<glyph unicode="&#xec;" horiz-adv-x="344" d="M-27 1749l93 104l84 -49l122 -250l-53 -24zM61 0l23 86v1241l-23 88h222l-23 -88v-1241l23 -86h-222z" />
<glyph unicode="&#xed;" horiz-adv-x="344" d="M61 0l23 86v1241l-23 88h222l-23 -88v-1241l23 -86h-222zM72 1554l123 250l84 49l92 -104l-246 -219z" />
<glyph unicode="&#xee;" horiz-adv-x="344" d="M-29 1534h111l78 174h24l78 -174h111l-94 199l-97 96h-20l-96 -96zM61 0l23 86v1241l-23 88h222l-23 -88v-1241l23 -86h-222z" />
<glyph unicode="&#xef;" horiz-adv-x="344" d="M-33 1571v96l41 41h94l41 -41v-96l-41 -41h-94zM61 0l23 86v1241l-23 88h222l-23 -88v-1241l23 -86h-222zM201 1571v96l41 41h94l41 -41v-96l-41 -41h-94z" />
<glyph unicode="&#xf0;" horiz-adv-x="692" d="M10 621v176h68l20 20v512l-20 86h465l88 -88v-1239l-88 -88h-465l20 88v512l-20 21h-68zM276 199l21 -21h135l21 21v1020l-21 20h-135l-21 -20v-402l21 -20h68v-176h-68l-21 -21v-401z" />
<glyph unicode="&#xf1;" horiz-adv-x="739" d="M61 0l23 86v1241l-23 88h199l197 -745l30 -125l-8 125v657l-22 88h221l-23 -88v-1241l23 -86h-199l-196 745l-31 125l8 -125v-659l23 -86h-222zM156 1577l67 10l58 27l116 -60h95l57 58l26 82l-45 45l-26 -56l-53 -26l-117 59h-96l-58 -57z" />
<glyph unicode="&#xf2;" horiz-adv-x="653" d="M61 88v1239l89 88h354l88 -88v-1239l-88 -88h-354zM176 1749l92 104l84 -49l123 -250l-53 -24zM238 197l20 -21h135l21 21v1020l-21 20h-135l-20 -20v-1020z" />
<glyph unicode="&#xf3;" horiz-adv-x="653" d="M61 88v1239l89 88h354l88 -88v-1239l-88 -88h-354zM199 1554l123 250l84 49l92 -104l-246 -219zM238 197l20 -21h135l21 21v1020l-21 20h-135l-20 -20v-1020z" />
<glyph unicode="&#xf4;" horiz-adv-x="653" d="M61 88v1239l89 88h354l88 -88v-1239l-88 -88h-354zM125 1534h111l77 174h25l78 -174h110l-94 199l-96 96h-21l-96 -96zM238 197l20 -21h135l21 21v1020l-21 20h-135l-20 -20v-1020z" />
<glyph unicode="&#xf5;" horiz-adv-x="653" d="M61 88v1239l89 88h354l88 -88v-1239l-88 -88h-354zM125 1577l68 10l57 27l117 -60h94l57 58l27 82l-45 45l-27 -56l-53 -26l-117 59h-96l-57 -57zM238 197l20 -21h135l21 21v1020l-21 20h-135l-20 -20v-1020z" />
<glyph unicode="&#xf6;" horiz-adv-x="653" d="M61 88v1239l89 88h354l88 -88v-1239l-88 -88h-354zM121 1571v96l41 41h94l41 -41v-96l-41 -41h-94zM238 197l20 -21h135l21 21v1020l-21 20h-135l-20 -20v-1020zM354 1571v96l41 41h94l41 -41v-96l-41 -41h-94z" />
<glyph unicode="&#xf7;" horiz-adv-x="739" d="M41 596v221l88 -22h481l88 22v-221l-88 22h-481zM219 293v147l78 76h145l76 -76v-147l-76 -78h-145zM219 975v147l78 76h145l76 -76v-147l-76 -78h-145zM281 317l41 -41h94l41 41v97l-41 41h-94l-41 -41v-97zM281 999l41 -41h94l41 41v97l-41 41h-94l-41 -41v-97z" />
<glyph unicode="&#xf8;" horiz-adv-x="653" d="M61 88v1239l89 88h278l14 62h123l-22 -101l49 -49v-1239l-88 -88h-279l-14 -61h-123l23 100zM238 588l149 649h-129l-20 -20v-629zM266 176h127l21 21v622z" />
<glyph unicode="&#xf9;" horiz-adv-x="698" d="M61 1415h222l-23 -88v-1130l21 -21h137l20 21v1130l-22 88h221l-23 -88v-1239l-88 -88h-354l-88 88v1239zM176 1749l92 104l84 -49l123 -250l-53 -24z" />
<glyph unicode="&#xfa;" horiz-adv-x="698" d="M61 1415h222l-23 -88v-1130l21 -21h137l20 21v1130l-22 88h221l-23 -88v-1239l-88 -88h-354l-88 88v1239zM240 1554l122 250l84 49l93 -104l-246 -219z" />
<glyph unicode="&#xfb;" horiz-adv-x="698" d="M61 1415h222l-23 -88v-1130l21 -21h137l20 21v1130l-22 88h221l-23 -88v-1239l-88 -88h-354l-88 88v1239zM150 1534h110l78 174h24l78 -174h111l-94 199l-97 96h-20l-96 -96z" />
<glyph unicode="&#xfc;" horiz-adv-x="698" d="M61 1415h222l-23 -88v-1130l21 -21h137l20 21v1130l-22 88h221l-23 -88v-1239l-88 -88h-354l-88 88v1239zM143 1571v96l41 41h95l40 -41v-96l-40 -41h-95zM379 1571v96l41 41h94l41 -41v-96l-41 -41h-94z" />
<glyph unicode="&#xfd;" d="M10 1415h258l-20 -61l108 -416l9 -64l8 64l108 416l-22 61h260l-45 -78l-221 -733v-516l22 -88h-221l22 88v524l-221 734zM258 1554l123 250l84 49l92 -104l-246 -219z" />
<glyph unicode="&#xfe;" horiz-adv-x="655" d="M61 0l23 86v1241l-23 88h222l-23 -88v-201l21 -20h245l88 -88v-621l-88 -88h-245l-21 -20v-203l23 -86h-222zM260 506l21 -21h135l20 21v401l-20 21h-135l-21 -21v-401z" />
<glyph unicode="&#xff;" d="M10 1415h258l-20 -61l108 -416l9 -64l8 64l108 416l-22 61h260l-45 -78l-221 -733v-516l22 -88h-221l22 88v524l-221 734zM158 1571v96l41 41h94l41 -41v-96l-41 -41h-94zM393 1571v96l41 41h94l41 -41v-96l-41 -41h-94z" />
<glyph unicode="&#x152;" horiz-adv-x="974" d="M61 88v1239l89 88h772l32 -196l-92 20h-250l-20 -20v-402l20 -20h68l88 22v-221l-88 23h-68l-20 -21v-401l20 -21h250l92 21l-32 -199h-772zM238 197l20 -21h135l21 21v1020l-21 20h-135l-20 -20v-1020z" />
<glyph unicode="&#x153;" horiz-adv-x="974" d="M61 88v1239l89 88h772l32 -196l-92 20h-250l-20 -20v-402l20 -20h68l88 22v-221l-88 23h-68l-20 -21v-401l20 -21h250l92 21l-32 -199h-772zM238 197l20 -21h135l21 21v1020l-21 20h-135l-20 -20v-1020z" />
<glyph unicode="&#x178;" d="M10 1415h258l-20 -61l108 -416l9 -64l8 64l108 416l-22 61h260l-45 -78l-221 -733v-516l22 -88h-221l22 88v524l-221 734zM158 1571v96l41 41h94l41 -41v-96l-41 -41h-94zM393 1571v96l41 41h94l41 -41v-96l-41 -41h-94z" />
<glyph unicode="&#x2c6;" horiz-adv-x="811" d="M205 1534h110l78 174h25l78 -174h110l-94 199l-96 96h-21l-96 -96z" />
<glyph unicode="&#x2dc;" horiz-adv-x="829" d="M205 1577l67 10l58 27l116 -60h95l57 58l27 82l-45 45l-27 -56l-53 -26l-117 59h-96l-58 -57z" />
<glyph unicode="&#x2000;" horiz-adv-x="926" />
<glyph unicode="&#x2001;" horiz-adv-x="1853" />
<glyph unicode="&#x2002;" horiz-adv-x="926" />
<glyph unicode="&#x2003;" horiz-adv-x="1853" />
<glyph unicode="&#x2004;" horiz-adv-x="617" />
<glyph unicode="&#x2005;" horiz-adv-x="463" />
<glyph unicode="&#x2006;" horiz-adv-x="308" />
<glyph unicode="&#x2007;" horiz-adv-x="308" />
<glyph unicode="&#x2008;" horiz-adv-x="231" />
<glyph unicode="&#x2009;" horiz-adv-x="370" />
<glyph unicode="&#x200a;" horiz-adv-x="102" />
<glyph unicode="&#x2010;" horiz-adv-x="655" d="M61 596v221l89 -22h356l88 22v-221l-88 22h-356z" />
<glyph unicode="&#x2011;" horiz-adv-x="655" d="M61 596v221l89 -22h356l88 22v-221l-88 22h-356z" />
<glyph unicode="&#x2012;" horiz-adv-x="655" d="M61 596v221l89 -22h356l88 22v-221l-88 22h-356z" />
<glyph unicode="&#x2013;" horiz-adv-x="819" d="M61 596v221l89 -22h520l88 22v-221l-88 22h-520z" />
<glyph unicode="&#x2014;" horiz-adv-x="983" d="M61 596v221l89 -22h684l88 22v-221l-88 22h-684z" />
<glyph unicode="&#x2019;" horiz-adv-x="258" d="M41 1278v96l41 41h94l41 -41v-137l-22 -88h-43l-23 88h-47z" />
<glyph unicode="&#x201a;" horiz-adv-x="258" d="M41 41v96l41 41h94l41 -41v-137l-22 -88h-43l-23 88h-47z" />
<glyph unicode="&#x201c;" horiz-adv-x="518" d="M41 1190l2 137l23 88h43l22 -86h47l41 -41l-2 -98l-41 -41h-94zM299 1190l2 137l23 88h43l22 -88h47l41 -45l-2 -92l-41 -41h-94z" />
<glyph unicode="&#x201d;" horiz-adv-x="516" d="M41 1278v96l41 41h94l41 -41v-137l-22 -88h-43l-23 88h-47zM299 1278v96l41 41h94l41 -41v-137l-22 -88h-43l-23 88h-47z" />
<glyph unicode="&#x2022;" horiz-adv-x="299" d="M61 659v95l41 41h95l41 -41v-95l-41 -41h-95z" />
<glyph unicode="&#x2026;" horiz-adv-x="856" d="M340 41v96l41 41h94l41 -41v-96l-41 -41h-94zM618 41v96l41 41h95l41 -41v-96l-41 -41h-95z" />
<glyph unicode="&#x202f;" horiz-adv-x="370" />
<glyph unicode="&#x2039;" horiz-adv-x="634" d="M41 655l410 -409l102 102l-307 307l307 308l-102 102z" />
<glyph unicode="&#x203a;" horiz-adv-x="634" d="M82 348l102 -102l410 409l-410 410l-102 -102l307 -308z" />
<glyph unicode="&#x205f;" horiz-adv-x="463" />
<glyph unicode="&#x20ac;" horiz-adv-x="747" d="M10 586l21 82h112v82h-133l21 81h112v496l88 88h355l88 -88v-178l22 -86h-221l23 86v70l-21 20h-137l-21 -20v-388h377l-20 -81h-357v-82h336l-20 -82h-316v-387l21 -21h137l21 21v69l-23 86h221l-22 -86v-180l-88 -88h-355l-88 88v498h-133z" />
<glyph unicode="&#x25fc;" horiz-adv-x="1413" d="M0 0v1413h1413v-1413h-1413z" />
</font>
</defs>
</svg>
